<?xml version="1.0" standalone="no"?>
<!DOCTYPE svg PUBLIC "-//W3C//DTD SVG 20010904//EN"
 "http://www.w3.org/TR/2001/REC-SVG-20010904/DTD/svg10.dtd">
<svg version="1.0" xmlns="http://www.w3.org/2000/svg"
 width="867.000000pt" height="1280.000000pt" viewBox="0 0 867.000000 1280.000000"
 preserveAspectRatio="xMidYMid meet">
<metadata>
Created by potrace 1.15, written by Peter Selinger 2001-2017
</metadata>
<g transform="translate(0.000000,1280.000000) scale(0.100000,-0.100000)"
fill="#fff" stroke="none">
<path d="M1395 12794 c-141 -19 -225 -41 -225 -60 0 -3 6 -17 14 -32 7 -15 37
-92 66 -172 71 -196 135 -327 214 -437 90 -125 89 -132 -21 -256 -23 -27 -57
-78 -75 -114 -29 -59 -32 -74 -30 -147 1 -58 -5 -100 -19 -146 -15 -46 -21
-93 -21 -161 0 -111 18 -185 62 -257 31 -49 88 -187 97 -232 2 -14 -12 -97
-32 -185 -28 -118 -38 -187 -40 -262 -2 -83 -6 -108 -23 -135 -45 -73 -53
-134 -61 -488 -6 -288 -9 -340 -24 -370 -10 -19 -106 -118 -214 -220 -207
-196 -344 -341 -398 -425 -18 -27 -68 -91 -111 -141 -44 -50 -106 -129 -138
-175 -33 -46 -105 -147 -161 -224 -232 -322 -255 -361 -255 -434 0 -42 29
-108 57 -133 30 -27 86 -43 320 -93 147 -32 222 -52 231 -63 11 -13 13 -43 8
-127 -6 -119 -28 -232 -77 -392 l-32 -101 47 -60 47 -59 -26 -49 c-52 -96 -24
-157 137 -298 51 -45 101 -97 111 -116 35 -67 10 -153 -104 -361 -34 -61 -68
-132 -75 -157 -35 -116 -3 -259 79 -348 73 -80 212 -169 336 -215 53 -20 168
-116 345 -288 339 -330 391 -372 574 -473 59 -32 119 -75 154 -109 81 -80 85
-102 92 -434 6 -352 42 -662 86 -763 l20 -44 -31 -37 c-57 -67 -92 -227 -129
-586 -52 -511 -86 -786 -105 -858 -8 -32 -15 -81 -15 -110 0 -101 -37 -220
-119 -387 -51 -106 -65 -124 -171 -234 -63 -65 -149 -144 -190 -174 -100 -73
-138 -110 -161 -154 -23 -45 -24 -70 -4 -108 13 -26 34 -35 222 -95 115 -37
312 -100 438 -140 431 -139 487 -148 915 -149 305 -1 341 3 598 65 246 59 322
65 468 40 102 -17 135 -19 229 -11 181 16 260 33 472 107 23 8 138 78 257 156
275 182 434 283 511 326 96 54 312 150 410 183 92 31 161 63 226 104 74 46
181 96 268 124 49 16 143 56 208 89 127 65 219 91 383 111 112 13 636 86 730
101 135 21 256 66 295 109 19 21 20 36 20 234 0 259 -20 369 -61 335 -19 -15
-17 -43 6 -113 24 -71 26 -143 4 -174 -43 -62 -142 -79 -588 -97 -354 -14
-436 -22 -506 -46 -19 -6 -98 -53 -175 -105 -77 -51 -222 -135 -321 -188 -100
-52 -234 -127 -297 -165 -80 -50 -130 -74 -168 -81 -121 -23 -243 -99 -410
-255 -126 -118 -344 -273 -540 -384 -68 -38 -160 -95 -204 -126 -163 -113
-209 -123 -391 -84 -75 17 -134 22 -239 22 -229 0 -466 -49 -865 -178 -200
-66 -207 -67 -285 -61 -183 12 -408 36 -448 47 -23 6 -186 62 -362 125 -314
113 -375 130 -653 179 -72 13 -92 21 -92 34 0 35 41 80 126 136 147 98 360
329 429 465 54 106 120 304 175 519 24 93 55 376 70 636 6 94 22 274 36 400
57 514 81 521 134 42 23 -211 39 -307 50 -307 8 0 18 87 23 200 1 41 6 55 17
55 24 0 17 -115 -14 -226 l-25 -95 30 -104 c16 -58 48 -192 69 -298 49 -236
78 -354 92 -367 14 -13 2 270 -17 419 -8 60 -15 157 -15 215 0 237 -40 522
-89 646 -52 129 -87 355 -111 710 -13 189 -7 284 21 316 17 20 19 36 17 128
-3 89 -5 105 -18 102 -72 -20 -114 -4 -62 23 24 13 30 23 36 65 7 53 17 66 58
76 14 4 37 18 50 32 l23 26 -40 -6 c-22 -3 -50 -9 -62 -13 -18 -5 -23 -2 -23
10 0 22 156 97 260 125 73 20 77 24 154 106 43 47 95 94 115 104 39 20 78 58
69 67 -3 3 -64 -19 -135 -49 -236 -101 -463 -177 -522 -177 l-26 1 28 15 c16
9 108 46 205 83 98 38 242 95 322 128 80 34 156 64 170 68 46 14 117 54 123
70 4 8 2 15 -3 15 -5 0 -110 -40 -233 -89 -427 -171 -757 -276 -757 -241 0 6
5 10 10 10 14 0 243 83 305 111 77 34 36 34 -67 0 -110 -37 -301 -81 -343 -80
-34 1 -36 0 149 58 212 67 475 168 861 331 154 65 296 121 315 125 47 10 62
18 123 72 79 71 163 169 187 221 12 26 37 63 54 82 36 40 90 132 100 170 l7
25 -23 -26 c-36 -40 -92 -121 -103 -149 -12 -29 -194 -250 -207 -250 -14 0 -9
28 7 34 19 7 19 32 0 40 -8 3 -29 3 -46 -1 -21 -4 -45 1 -79 18 -27 13 -49 27
-50 31 0 4 16 33 36 64 20 30 33 59 29 62 -4 4 -46 -34 -94 -84 -47 -49 -95
-97 -105 -105 -33 -24 29 82 83 143 135 153 114 163 -34 18 -63 -63 -117 -111
-120 -108 -3 3 24 44 60 92 68 92 165 273 165 309 0 16 -5 12 -21 -18 -31 -58
-183 -253 -299 -385 -56 -63 -113 -132 -127 -152 -14 -21 -32 -38 -40 -38 -20
0 -8 17 95 147 217 273 393 557 409 660 8 56 -6 36 -79 -107 -102 -200 -180
-306 -396 -543 -69 -75 -137 -153 -150 -172 -26 -36 -52 -46 -52 -20 0 8 32
50 72 93 109 117 341 436 432 595 52 89 10 47 -79 -79 -185 -266 -448 -574
-488 -574 -13 0 17 43 102 145 100 120 176 224 223 304 70 121 42 95 -96 -87
-130 -171 -374 -414 -384 -383 -2 6 18 39 45 74 28 34 53 68 58 76 12 20 -7 8
-98 -66 -107 -87 -110 -84 -23 17 45 53 196 278 196 293 0 17 -55 -40 -140
-143 -75 -91 -181 -189 -300 -277 -121 -89 -139 -82 -32 12 98 86 218 218 244
270 16 32 -2 17 -89 -74 -114 -121 -229 -214 -325 -262 -31 -16 -61 -35 -65
-44 -5 -8 -17 -15 -28 -17 -23 -2 -115 23 -115 32 0 4 30 27 68 53 68 47 165
137 146 137 -6 0 -37 -16 -70 -36 -142 -87 -171 -103 -199 -110 -37 -8 -33 -4
67 70 99 73 221 206 190 206 -5 0 -48 -34 -96 -75 -125 -107 -196 -154 -196
-129 0 3 41 49 90 102 50 53 86 98 81 100 -6 2 -49 -25 -96 -61 -89 -66 -262
-164 -272 -153 -4 3 -4 7 -2 9 2 2 47 35 99 74 52 38 101 77 109 86 27 34 1
29 -61 -10 -104 -66 -198 -110 -198 -94 0 5 29 28 64 51 112 72 117 99 9 52
-117 -52 -137 -50 -53 5 75 49 131 104 112 111 -5 1 -52 -19 -103 -47 -137
-72 -299 -114 -185 -47 26 15 45 30 42 33 -2 3 -28 0 -56 -6 -95 -21 -96 -11
-1 34 52 25 92 48 89 51 -3 3 -73 -11 -155 -30 -83 -20 -172 -36 -199 -35
l-49 1 57 12 c103 22 94 34 -33 46 -137 13 -225 43 -275 94 -36 36 -43 49 -49
100 -15 121 24 302 69 322 18 8 56 58 136 179 42 64 15 242 -39 260 -12 3 -30
23 -40 43 -10 20 -28 46 -40 56 -26 24 -26 38 0 62 21 19 21 18 40 -5 10 -13
19 -29 19 -37 0 -8 5 -14 10 -14 6 0 10 11 10 25 0 13 8 40 17 60 28 58 12 62
-120 31 -125 -29 -159 -28 -183 10 -14 21 -14 27 4 66 11 24 38 62 60 85 38
41 42 43 100 43 87 0 192 -25 299 -70 51 -22 97 -40 102 -40 5 0 21 -24 35
-52 45 -92 111 -201 124 -206 9 -3 12 17 12 78 0 94 -22 201 -51 248 -20 34
-71 62 -111 62 -13 0 -52 14 -88 31 -120 56 -260 100 -352 108 -48 5 -94 14
-103 21 -24 20 -18 77 26 226 55 191 62 203 129 227 121 44 200 167 200 310 0
176 -120 278 -275 236 -80 -22 -147 -97 -125 -139 6 -11 19 -20 30 -20 19 0
24 11 32 64 5 30 28 32 28 2 0 -33 17 -33 32 -1 8 18 19 25 40 25 30 0 68 -30
68 -55 0 -8 9 -19 20 -25 11 -6 26 -23 34 -38 l15 -27 1 40 c0 22 5 47 10 55
8 13 13 12 32 -7 17 -17 22 -34 22 -75 0 -32 -5 -53 -13 -56 -7 -2 -32 -22
-57 -43 -64 -55 -88 -53 -230 22 l-117 61 -143 13 c-79 7 -148 16 -153 20 -6
3 -29 0 -52 -6 -41 -13 -42 -13 -76 24 -49 55 -41 74 127 282 54 66 139 181
190 255 112 163 173 242 261 336 36 40 133 150 214 246 82 95 203 229 270 298
67 69 132 145 145 170 22 42 22 50 14 160 -15 197 -9 393 15 485 41 155 101
238 180 251 l39 6 -32 29 c-26 23 -29 31 -20 46 23 39 162 53 296 31 53 -8
102 -27 185 -70 62 -32 115 -58 118 -58 20 0 -7 26 -81 79 -103 73 -183 101
-288 101 -60 0 -201 -24 -270 -46 -18 -6 -19 0 -14 147 8 214 41 350 102 410
40 40 104 54 246 54 163 0 211 -13 299 -80 68 -52 90 -62 179 -85 27 -7 64
-30 103 -65 72 -65 94 -68 159 -25 25 16 50 30 56 30 6 0 17 7 24 15 7 8 20
15 29 15 29 -1 128 -106 161 -172 57 -115 109 -148 201 -129 108 23 127 12
139 -82 10 -83 45 -146 107 -191 51 -37 142 -71 214 -81 l46 -6 7 68 c3 37 15
102 26 143 32 121 24 210 -23 248 -12 10 -13 -2 -9 -86 5 -114 -13 -194 -54
-239 l-25 -28 5 35 c3 19 9 52 12 74 8 47 -5 46 -38 -4 -23 -34 -45 -40 -41
-10 1 8 5 35 9 60 l7 45 -42 -45 c-43 -45 -44 -44 -13 37 16 43 11 66 -10 45
-24 -24 -28 -10 -29 91 -1 94 -2 100 -14 72 -8 -16 -17 -50 -20 -75 -10 -76
-15 -90 -29 -90 -15 0 -36 41 -36 71 0 12 9 52 21 89 l21 69 -29 63 -28 63 -7
-93 c-6 -92 -22 -137 -39 -110 -5 7 -9 25 -9 41 0 33 -16 36 -24 4 -8 -34 -64
-107 -81 -107 -19 0 -20 -4 16 86 l31 78 -16 76 c-8 41 -21 99 -27 128 -16 77
-33 67 -25 -15 15 -149 17 -179 8 -192 -16 -22 -29 -5 -53 67 -40 124 -60 123
-28 -1 19 -73 21 -91 11 -124 -21 -69 -25 -70 -75 -16 -65 70 -106 122 -128
165 -11 21 -33 48 -50 60 -18 13 -44 50 -60 83 l-29 60 -1 -65 c0 -79 -17
-133 -42 -138 -15 -3 -18 0 -12 18 9 28 -4 160 -16 160 -5 0 -9 -15 -9 -34 0
-43 -17 -89 -29 -81 -6 3 -13 27 -16 53 -4 26 -9 56 -12 67 l-6 20 -8 -20 c-4
-11 -8 -45 -8 -75 -1 -60 -14 -91 -30 -75 -5 6 -14 53 -21 105 -6 52 -13 105
-17 117 -8 33 -25 17 -18 -16 4 -19 1 -32 -10 -41 -8 -7 -15 -23 -15 -36 0
-31 -6 -30 -60 7 -55 37 -121 72 -126 67 -9 -10 33 -53 82 -84 83 -53 63 -89
-25 -44 -84 42 -178 181 -206 305 -21 87 -26 97 -98 175 -60 65 -96 127 -97
165 -1 31 -38 107 -50 100 -23 -14 -2 -250 26 -293 l17 -25 17 22 17 23 42
-48 c51 -58 110 -176 118 -234 9 -62 -10 -45 -57 53 -64 134 -141 208 -127
122 l6 -36 -29 21 c-58 41 -71 72 -79 186 -4 57 -13 110 -19 116 -19 19 -25
-16 -19 -101 6 -95 42 -202 96 -285 54 -83 55 -102 1 -71 -33 19 -37 19 -43
-5 -8 -32 -31 -24 -80 29 -83 89 -127 209 -127 351 0 92 7 120 30 120 23 0 30
-27 30 -121 0 -82 18 -157 58 -234 32 -64 40 -44 14 37 -30 93 -31 101 -42
252 -6 77 -18 155 -26 174 -17 41 -11 68 16 77 33 10 50 35 50 70 0 56 25 61
116 26 97 -38 114 -53 114 -103 0 -64 31 -103 45 -57 5 14 -4 43 -25 85 -25
51 -40 69 -71 85 -49 24 -42 43 13 34 28 -5 59 -1 108 15 61 20 70 20 96 7 42
-22 159 -54 236 -66 123 -18 279 -141 423 -336 142 -191 220 -249 407 -301 51
-14 125 -36 163 -50 46 -16 92 -24 134 -24 79 0 126 -21 205 -90 66 -57 119
-90 196 -120 30 -12 62 -28 70 -36 12 -12 10 -14 -20 -14 -19 0 -60 7 -90 15
-30 8 -57 15 -59 15 -13 0 60 -65 97 -87 32 -19 49 -39 69 -80 28 -60 140
-183 167 -183 8 0 41 -12 73 -26 32 -14 78 -29 102 -32 24 -4 47 -14 51 -22
40 -85 59 -116 102 -164 28 -31 78 -75 112 -98 71 -48 83 -61 136 -149 41 -70
67 -96 231 -230 57 -47 167 -147 244 -221 174 -167 212 -196 278 -204 65 -9
81 -27 96 -105 20 -101 52 -157 138 -241 78 -75 138 -112 258 -158 l60 -23 0
-136 c0 -119 3 -143 23 -193 50 -124 159 -235 297 -303 87 -43 166 -64 275
-71 47 -4 94 -12 105 -19 11 -7 56 -81 100 -164 43 -84 87 -157 96 -161 41
-23 63 -156 39 -242 -10 -36 -71 -100 -78 -80 -1 5 6 33 18 61 25 64 25 67 -1
74 -17 5 -20 11 -15 29 4 13 10 42 13 65 5 35 2 43 -16 53 -31 16 -51 -3 -51
-49 -1 -72 -55 -149 -125 -176 -11 -4 -53 -11 -93 -15 -78 -8 -95 -15 -72 -30
39 -25 157 -1 244 50 64 36 72 27 19 -25 -65 -64 -208 -92 -298 -60 -56 20
-64 19 -146 -20 -41 -19 -79 -35 -87 -35 -26 0 -72 -31 -86 -59 -8 -15 -20
-68 -26 -117 -14 -119 -15 -121 -61 -144 -44 -23 -51 -40 -15 -40 14 0 28 -4
31 -10 23 -38 80 45 120 175 14 44 28 85 33 90 4 6 39 34 78 63 l72 52 166 -9
c92 -5 169 -11 172 -14 12 -11 -7 -25 -43 -32 -107 -20 -241 -133 -290 -243
-20 -45 -28 -74 -22 -83 5 -8 9 -49 9 -92 0 -64 4 -83 21 -107 19 -25 21 -38
17 -117 -6 -124 -24 -155 -143 -244 -52 -39 -95 -75 -95 -80 0 -19 51 -7 205
46 169 58 235 69 235 37 0 -24 -42 -47 -134 -72 -83 -22 -97 -29 -193 -101
-33 -26 -83 -54 -110 -62 -87 -29 -203 -33 -203 -9 0 4 13 15 29 24 30 17 81
102 81 135 0 24 -83 -58 -116 -115 -33 -56 -50 -50 -46 16 6 82 -21 67 -58
-31 -24 -65 -40 -73 -40 -21 0 49 54 147 112 207 38 38 43 47 27 47 -26 0
-124 -92 -154 -145 -13 -22 -26 -56 -30 -75 -25 -130 -38 -136 -55 -25 -29
206 6 262 176 286 203 28 316 68 369 131 28 33 29 55 4 71 -22 14 -61 -11 -97
-63 -36 -51 -63 -66 -163 -90 -90 -21 -164 -26 -174 -11 -7 13 27 31 57 31 13
0 33 7 44 15 17 13 9 14 -85 15 l-104 0 24 26 c13 15 43 35 67 46 48 22 55 38
15 38 -31 0 -77 -25 -141 -77 -24 -19 -45 -33 -48 -30 -8 8 29 86 60 126 14
19 26 45 26 57 0 24 54 96 119 159 22 21 41 43 41 47 0 13 -73 -21 -101 -48
-14 -13 -30 -24 -36 -24 -38 0 -18 59 39 117 23 24 39 46 35 49 -10 10 -82
-25 -108 -52 -11 -12 -35 -51 -53 -85 -34 -69 -50 -82 -60 -47 -18 70 6 147
70 218 79 88 141 93 179 16 22 -44 98 -30 156 30 41 43 30 56 -23 26 -46 -25
-55 -23 -39 6 22 40 15 45 -52 39 -86 -8 -181 -41 -247 -85 -51 -34 -78 -70
-95 -126 -13 -44 -29 7 -33 103 -3 76 -1 105 12 128 8 17 15 47 14 67 -1 23 6
44 18 57 20 22 93 62 154 85 l35 13 -46 0 c-38 1 -57 -6 -100 -34 -37 -26 -55
-33 -63 -25 -17 17 14 62 54 82 19 9 77 24 128 32 114 20 145 35 180 88 15 23
42 57 60 76 27 28 37 33 60 27 15 -3 37 -15 48 -26 47 -44 213 -64 308 -38 74
20 68 -29 -8 -68 -29 -15 -29 -16 -10 -30 15 -11 41 -14 114 -11 119 6 176 29
219 89 54 74 38 79 -39 13 -79 -67 -135 -52 -114 33 9 37 11 38 57 41 83 5 47
45 -47 51 -126 7 -129 6 -186 -32 -53 -35 -118 -57 -170 -56 -24 0 -24 0 -6
14 11 8 30 15 42 15 13 0 26 4 29 10 4 6 -20 10 -65 10 -86 0 -90 16 -11 37
86 22 199 91 174 106 -5 3 -42 -8 -83 -25 -64 -26 -95 -32 -215 -40 -218 -14
-248 -28 -322 -140 -27 -40 -59 -78 -73 -85 -85 -41 -184 -83 -188 -79 -7 8
31 68 48 76 8 5 34 16 58 26 58 24 112 78 112 112 0 26 -1 26 -36 -16 -39 -46
-115 -96 -139 -90 -11 2 -6 14 20 47 19 24 33 46 30 49 -3 3 -11 0 -17 -6 -29
-29 -37 -2 -16 55 15 41 6 51 -28 29 -34 -23 -38 -17 -23 33 8 28 9 44 1 53
-10 13 -9 16 28 116 27 73 -37 55 -77 -21 -28 -55 -26 -16 2 43 16 33 25 63
21 67 -3 4 -20 -1 -37 -11 -23 -13 -34 -15 -42 -7 -6 6 -26 11 -44 11 -21 0
-36 6 -39 15 -10 24 16 73 50 98 47 33 175 30 271 -7 151 -59 178 -67 219 -64
l41 3 -80 38 c-44 22 -114 52 -155 69 -111 44 -114 51 -33 72 l48 13 -60 8
c-50 7 -70 4 -123 -15 -71 -25 -91 -19 -48 15 30 24 75 40 144 51 57 9 49 28
-13 32 -65 4 -121 -18 -208 -85 -143 -109 -193 -120 -357 -79 -128 32 -158 32
-198 4 -157 -117 -174 -133 -225 -213 -28 -46 -75 -117 -104 -159 -39 -57 -54
-90 -59 -126 -8 -63 -24 -65 -24 -3 l0 47 -28 -27 c-15 -15 -31 -27 -35 -27
-3 0 -9 23 -13 51 l-7 51 -15 -33 c-10 -23 -17 -84 -21 -189 -6 -146 -7 -155
-26 -155 -16 0 -21 8 -25 46 -4 31 -20 67 -49 113 -54 82 -64 143 -32 193 28
44 72 64 166 75 90 10 115 16 115 27 0 23 -264 15 -309 -8 -28 -16 -33 -14
-29 12 5 35 -34 34 -71 -3 -24 -25 -31 -40 -31 -71 0 -58 20 -98 86 -171 63
-70 113 -148 94 -148 -6 0 -58 46 -114 103 -115 114 -157 183 -164 272 -6 71
16 111 75 137 38 17 58 19 109 14 34 -4 82 -14 106 -23 96 -36 327 -8 336 41
4 16 0 18 -30 12 -86 -18 -194 -17 -289 2 -110 23 -193 56 -187 74 9 25 66 48
147 60 73 10 80 13 67 26 -10 10 -43 18 -88 21 -68 6 -71 7 -49 20 23 13 85
11 156 -5 l30 -6 -21 21 c-14 15 -42 26 -85 33 -58 10 -69 9 -109 -10 -30 -14
-48 -17 -55 -11 -11 11 19 39 42 39 7 0 13 5 13 11 0 11 -29 5 -72 -17 -27
-14 -58 -19 -58 -9 0 4 7 19 15 34 16 33 72 58 154 72 57 9 69 14 57 26 -20
20 -104 3 -178 -36 -43 -22 -80 -36 -83 -31 -3 5 1 22 9 37 30 59 90 92 184
99 37 3 74 8 82 11 25 9 -28 21 -98 22 -102 2 -122 23 -82 89 37 60 104 73
254 51 42 -6 91 -8 111 -5 67 13 202 163 274 304 25 50 23 59 -11 42 -41 -22
-69 -53 -119 -137 -71 -117 -144 -174 -188 -146 -22 14 -29 45 -31 148 -2 98
-9 136 -27 142 -13 5 -20 -15 -33 -92 -5 -32 -16 -68 -25 -81 -17 -26 -103
-80 -112 -70 -4 3 10 30 30 59 21 30 37 59 37 65 0 18 -25 14 -54 -9 -15 -12
-30 -19 -33 -16 -15 16 12 59 56 90 27 20 56 46 65 59 54 77 87 130 83 135 -9
9 -46 -17 -52 -37 -3 -11 -11 -20 -16 -20 -22 0 -5 40 47 110 79 106 101 146
120 219 20 79 14 126 -32 245 -25 64 -34 104 -34 147 0 60 -15 79 -26 34 -3
-14 -10 -25 -15 -25 -21 0 -6 72 31 149 40 83 50 126 28 119 -34 -12 -118
-213 -118 -283 0 -18 21 -81 46 -140 46 -106 47 -110 40 -184 -6 -70 -4 -77
15 -92 21 -16 20 -17 -80 -119 -121 -122 -130 -113 -49 49 43 84 53 115 56
166 5 78 -8 118 -65 203 -86 126 -87 147 -27 299 35 84 42 152 19 160 -6 2
-16 -12 -23 -31 -7 -18 -39 -64 -72 -101 -33 -37 -60 -75 -60 -84 1 -11 7 -8
21 12 20 26 49 37 49 18 0 -4 -14 -40 -31 -78 l-31 -70 47 -94 c26 -52 60
-112 75 -134 61 -89 60 -186 -4 -262 -40 -47 -56 -75 -56 -102 0 -11 -8 -36
-17 -56 -15 -31 -15 -41 -3 -88 7 -28 15 -58 17 -64 17 -46 -97 39 -117 86
-18 45 -6 78 39 101 46 23 76 61 107 139 24 57 31 135 15 160 -11 16 -16 7
-25 -41 -8 -46 -26 -60 -26 -21 -1 57 -41 122 -93 148 -42 20 -88 100 -97 168
-12 80 -18 97 -37 97 -22 0 -10 80 19 135 62 116 79 155 89 203 21 92 -8 83
-53 -17 -48 -105 -129 -224 -143 -209 -2 2 11 37 30 78 58 127 -3 94 -66 -35
-33 -68 -36 -90 -13 -99 8 -3 12 -10 9 -16 -11 -19 -39 -10 -73 23 l-34 32 4
-58 c6 -69 24 -92 119 -148 134 -78 225 -203 223 -309 0 -30 -8 -73 -17 -95
-11 -27 -16 -70 -17 -131 0 -96 16 -170 52 -230 21 -35 21 -37 4 -127 -9 -51
-30 -135 -46 -187 -15 -52 -31 -117 -35 -145 -4 -27 -15 -60 -26 -73 -35 -45
-20 -164 39 -308 l21 -52 -24 -33 c-66 -89 -73 -213 -19 -329 31 -67 104 -149
154 -175 74 -38 125 -162 123 -300 -1 -44 -3 -88 -5 -99 -2 -14 7 -21 43 -30
67 -17 139 -68 204 -141 92 -105 211 -145 367 -123 226 31 378 167 378 339 0
96 -22 148 -97 230 -77 85 -89 109 -98 213 -9 94 0 94 47 3 l32 -62 9 53 c7
40 12 52 25 50 11 -2 18 6 22 27 7 41 33 43 63 3 36 -46 46 -78 66 -198 l17
-105 12 40 c7 22 12 59 12 83 0 23 5 51 12 61 9 15 6 29 -16 76 -49 99 -170
203 -339 290 l-58 30 -20 -24 c-59 -72 -63 -254 -11 -466 17 -66 28 -123 26
-127 -18 -29 -105 32 -147 104 -34 58 -64 161 -72 244 -9 89 14 196 56 272 97
171 152 191 341 122 287 -105 422 -393 367 -787 -11 -84 -102 -451 -118 -482
-23 -43 -296 -187 -484 -256 -27 -9 -74 -39 -105 -67 -79 -69 -186 -120 -243
-116 -44 3 -44 3 -41 38 l3 34 -26 -24 c-25 -24 -26 -24 -77 -7 -28 9 -55 14
-60 11 -11 -7 -10 -124 1 -124 6 0 13 4 16 10 9 15 41 12 54 -4 9 -11 8 -29
-4 -77 -21 -82 -31 -199 -17 -199 12 0 19 29 27 115 3 33 8 74 11 92 l5 31 92
4 c110 4 148 20 255 108 77 63 113 78 241 101 69 12 74 11 87 -6 8 -10 14 -35
14 -54 1 -30 26 -96 31 -81 1 3 7 50 13 105 11 94 13 98 25 70 6 -16 15 -70
19 -120 12 -150 35 -111 47 78 10 148 25 143 41 -15 3 -38 10 -68 14 -68 4 0
10 35 13 79 7 85 25 141 39 119 4 -7 8 -87 8 -178 0 -91 3 -175 6 -187 14 -52
22 -15 22 105 0 125 15 292 32 348 5 19 9 -53 9 -196 1 -124 5 -231 10 -238
19 -30 51 379 51 651 0 81 4 147 9 147 13 0 21 -173 19 -452 -2 -225 1 -272
17 -256 3 3 12 72 20 153 8 81 16 150 19 153 4 3 6 0 6 -7 0 -8 7 -10 20 -6
13 4 22 1 24 -7 16 -53 14 -51 42 -29 15 12 29 19 31 17 3 -2 0 -21 -6 -43
-17 -60 -14 -165 5 -192 15 -21 15 -31 4 -91 -43 -226 69 -356 261 -305 35 9
107 23 160 30 67 9 120 23 178 49 45 20 84 36 86 36 12 0 2 -22 -29 -67 -64
-93 -149 -293 -132 -311 4 -3 46 -7 94 -9 48 -1 88 -7 90 -12 5 -15 -44 -37
-149 -66 -52 -15 -117 -39 -146 -53 -53 -25 -101 -67 -90 -78 7 -8 280 73 329
97 20 10 57 37 83 59 62 53 77 50 88 -20 13 -88 4 -131 -48 -222 -62 -106 -70
-115 -130 -146 -110 -55 -244 -88 -260 -63 -8 14 41 48 103 71 89 32 90 33 57
38 -39 5 -96 -13 -155 -49 -26 -16 -52 -29 -59 -29 -23 0 -10 29 26 59 40 33
97 58 211 90 79 24 94 41 33 41 -33 0 -165 -33 -225 -56 -14 -5 -17 -3 -14 7
9 26 68 57 181 93 116 37 146 51 135 61 -11 11 -240 -54 -292 -84 -45 -24 -70
-51 -130 -136 -8 -11 -18 -16 -22 -12 -7 7 8 61 41 142 15 37 -54 -36 -75 -80
-50 -103 3 -221 107 -241 118 -22 529 130 648 239 26 24 63 76 88 122 49 93
70 102 77 35 4 -36 9 -45 24 -45 27 0 36 -42 25 -119 -23 -167 -76 -234 -260
-333 -132 -71 -159 -81 -159 -60 0 14 46 48 140 105 42 25 96 79 87 88 -27 28
-296 -158 -297 -205 0 -9 -9 -34 -19 -56 l-19 -40 -1 43 c-2 93 73 179 251
290 62 39 126 82 141 96 30 27 73 113 63 124 -4 3 -28 -19 -55 -49 -34 -37
-79 -71 -147 -109 -126 -70 -223 -160 -265 -245 -19 -39 -37 -99 -47 -161 -9
-54 -21 -97 -27 -96 -16 2 -27 72 -21 129 8 66 36 141 81 216 33 55 34 58 13
51 -68 -21 -114 -91 -144 -219 -20 -86 -14 -196 15 -279 25 -71 28 -136 6
-136 -21 0 -30 -46 -70 -364 -24 -188 -33 -292 -27 -298 6 -6 14 2 21 24 13
38 61 432 61 496 0 53 10 73 65 133 23 25 55 64 70 87 15 23 32 42 36 42 12 0
11 -47 -2 -93 -8 -31 -5 -56 17 -145 28 -116 43 -250 44 -404 0 -114 19 -137
21 -25 1 39 4 113 8 162 l7 90 32 -65 c46 -94 55 -160 49 -335 -7 -180 -38
-341 -98 -507 -22 -62 -51 -142 -64 -178 -12 -36 -26 -81 -29 -100 l-7 -35 20
23 c72 83 212 590 228 825 10 159 26 91 25 -107 -1 -106 2 -166 8 -160 12 12
29 132 31 214 0 36 4 74 9 85 7 19 9 18 19 -8 6 -16 11 -33 11 -39 0 -6 11
-34 24 -62 13 -28 27 -76 31 -106 6 -45 9 -51 16 -32 13 35 26 26 48 -34 45
-120 52 -222 25 -365 -16 -85 -108 -379 -171 -543 -18 -49 -32 -97 -30 -105 8
-40 123 238 181 437 32 109 55 229 74 382 8 62 9 64 20 37 14 -34 16 -292 2
-352 -5 -22 -29 -106 -54 -186 -52 -169 -64 -225 -48 -215 28 17 110 339 137
536 23 169 25 180 34 180 15 0 21 -43 21 -163 0 -153 -15 -291 -45 -399 -26
-98 -19 -117 14 -36 45 114 63 201 67 328 8 200 21 220 44 65 6 -44 20 -100
31 -124 22 -50 44 -166 54 -288 8 -97 14 -91 -125 -117 -48 -10 -95 -25 -113
-38 l-32 -23 100 -7 c240 -18 290 -30 580 -142 136 -52 233 -113 376 -237 51
-45 104 -88 117 -97 75 -49 -5 74 -119 183 -116 111 -283 215 -343 215 -26 0
-176 71 -214 101 -16 12 -34 18 -48 15 -13 -4 -32 2 -48 15 -22 17 -26 28 -26
70 0 28 -25 174 -55 326 -30 152 -55 287 -55 299 0 17 15 31 65 58 93 52 95
58 95 207 l0 126 84 69 c97 80 139 138 231 321 64 129 105 235 105 273 0 14
13 26 44 41 25 11 70 43 102 70 31 28 85 64 120 80 105 50 161 146 205 349 21
97 23 127 21 405 -2 311 5 408 39 535 37 137 62 163 166 174 144 14 237 118
273 304 21 106 8 366 -30 582 -39 225 -37 266 12 335 55 77 67 133 78 373 10
203 10 218 -10 290 -58 210 -199 413 -309 446 -71 21 -107 42 -135 79 -38 49
-53 101 -91 311 -54 293 -72 361 -125 471 -27 55 -65 134 -85 175 -19 41 -44
90 -56 107 -14 23 -27 74 -40 165 -35 242 -89 404 -202 606 -70 128 -131 210
-289 394 -130 151 -213 229 -392 373 -113 90 -145 109 -346 204 -47 22 -110
58 -140 80 -30 22 -100 57 -155 77 -136 50 -190 78 -255 134 -137 117 -280
203 -280 169 0 -6 42 -55 93 -107 87 -91 114 -117 199 -199 37 -36 58 -37 58
-2 0 10 6 19 12 19 30 0 170 -54 219 -84 30 -18 85 -52 122 -75 38 -23 109
-60 159 -82 51 -21 103 -47 117 -57 l26 -17 -42 -5 -42 -5 80 -63 c151 -120
225 -235 274 -427 32 -126 68 -203 134 -284 54 -68 60 -81 36 -81 -33 0 -76
32 -109 82 -31 46 -92 212 -128 348 -17 66 -23 22 -8 -69 29 -194 68 -283 180
-416 114 -135 183 -257 245 -436 37 -107 56 -221 38 -232 -6 -4 -21 21 -34 56
-13 36 -24 55 -27 45 -7 -32 29 -132 84 -235 55 -104 66 -143 39 -143 -41 0
-127 168 -175 340 -17 63 -40 125 -50 140 -27 38 -120 281 -120 314 0 6 20
-10 45 -34 25 -24 45 -41 45 -37 0 17 -83 129 -136 184 l-55 58 5 -62 c3 -36
1 -65 -4 -68 -5 -3 -22 20 -37 52 l-28 58 -3 -74 c-4 -92 9 -152 53 -251 47
-108 53 -145 26 -162 -12 -7 -21 -15 -21 -19 0 -3 20 -31 44 -63 62 -79 84
-145 102 -305 28 -250 40 -308 78 -384 19 -39 33 -74 30 -79 -18 -28 -66 16
-89 82 -27 77 -36 131 -46 280 -5 79 -16 169 -25 200 -16 56 -50 120 -63 120
-4 0 1 -39 10 -87 10 -49 30 -182 44 -298 38 -299 94 -505 137 -505 19 0 58
33 58 50 0 21 18 9 30 -21 7 -17 24 -35 37 -40 13 -5 28 -21 34 -36 23 -62 45
-100 91 -156 42 -52 48 -66 48 -106 0 -36 9 -62 40 -115 45 -77 49 -96 20 -96
-24 0 -44 29 -68 101 -53 151 -121 246 -256 354 -68 54 -100 86 -115 119 -12
24 -29 50 -38 58 -15 12 -16 8 -9 -39 9 -68 -5 -69 -46 -3 -17 28 -35 50 -39
50 -11 0 -11 -328 0 -392 4 -27 6 -48 3 -48 -3 0 -24 17 -48 38 -24 20 -59 49
-77 64 -27 22 -43 51 -77 140 -55 146 -98 238 -111 238 -16 0 -2 -51 48 -174
24 -60 41 -116 38 -123 -9 -24 -23 -5 -39 52 -9 30 -21 57 -26 60 -14 8 -13
-4 6 -86 9 -39 13 -73 10 -76 -12 -13 -56 41 -70 86 -8 25 -18 79 -21 119 -7
74 -20 92 -31 46 -10 -40 12 -171 47 -277 17 -53 29 -102 26 -109 -7 -20 -104
89 -135 152 -27 55 -27 55 -27 285 0 249 10 323 43 310 9 -4 33 -12 52 -17 44
-13 75 -37 123 -96 91 -113 155 -258 168 -383 10 -99 23 -144 40 -133 19 11 4
257 -21 335 -10 35 -47 106 -80 158 -85 131 -101 166 -107 231 -5 56 -5 58 29
84 62 47 76 36 118 -86 21 -61 29 -75 29 -53 1 17 -15 76 -35 133 l-37 103 21
27 c75 93 75 147 2 292 -30 58 -75 141 -102 185 -40 68 -51 97 -67 182 -24
125 -41 183 -54 183 -13 0 -4 -105 18 -196 10 -45 33 -99 61 -145 24 -41 51
-96 59 -123 19 -63 19 -173 0 -206 -8 -14 -14 -38 -15 -53 0 -40 25 -23 59 38
32 60 51 69 51 23 0 -38 -23 -90 -108 -242 -68 -122 -80 -159 -60 -183 11 -14
11 -16 -2 -11 -8 4 -40 16 -70 29 -30 12 -62 25 -70 29 -8 4 -19 29 -23 56
-25 154 -39 202 -82 288 -42 83 -52 96 -116 142 -39 28 -87 58 -107 67 -123
50 -122 49 -122 74 0 36 11 52 117 170 55 63 105 129 118 159 20 45 71 101 83
90 2 -3 -5 -29 -16 -58 -10 -29 -22 -69 -26 -89 -3 -20 -20 -57 -37 -83 -17
-26 -29 -50 -25 -53 8 -8 70 36 96 70 13 16 25 51 30 85 4 32 22 86 39 120 31
61 40 112 21 112 -37 0 -160 -111 -174 -158 -12 -38 -23 -24 -47 61 -17 57
-24 108 -24 167 0 78 3 93 43 181 44 100 52 143 28 152 -32 13 -67 -57 -90
-182 -20 -104 -20 -215 -1 -306 27 -130 13 -179 -26 -85 -19 49 -55 198 -64
273 -4 26 -10 47 -16 47 -14 0 -11 -106 6 -180 32 -143 38 -209 25 -253 -14
-51 -111 -207 -125 -203 -8 2 -56 80 -68 111 -3 6 -7 7 -11 4 -13 -12 24 -143
65 -232 38 -81 44 -117 20 -117 -5 0 -13 9 -16 21 -10 29 -64 89 -82 89 -18 0
-13 -18 33 -114 19 -39 34 -79 34 -89 0 -10 5 -27 10 -38 9 -16 7 -19 -15 -19
-61 0 -151 63 -184 129 -10 20 -26 67 -35 105 -21 84 -31 104 -91 181 -53 68
-84 124 -120 222 -14 37 -32 78 -40 90 -27 40 12 60 110 53 47 -3 124 -50 169
-104 85 -101 95 -111 102 -103 16 16 -42 103 -121 182 -101 102 -186 159 -237
159 -31 1 -46 9 -92 55 -31 30 -58 52 -62 48 -3 -3 8 -36 25 -73 36 -78 38
-94 10 -94 -29 0 -196 49 -246 72 -52 24 -48 20 -121 149 -65 114 -82 161 -82
227 0 37 3 42 23 42 36 0 107 -51 168 -121 54 -62 121 -110 134 -97 13 13 -26
67 -90 126 -65 60 -165 119 -240 142 -76 24 -73 42 8 50 44 4 52 8 55 27 2 12
-15 88 -38 170 -22 81 -45 165 -51 186 -5 20 -15 37 -21 37 -15 0 -3 -87 32
-229 25 -102 27 -119 15 -138 -20 -30 -77 -47 -133 -38 -26 4 -59 9 -75 10
-57 5 -187 102 -187 140 0 27 -106 107 -204 155 -112 53 -170 70 -245 70 l-50
0 -32 63 c-42 79 -190 228 -279 280 -36 20 -92 43 -124 49 -46 10 -68 21 -94
48 -33 34 -82 121 -82 148 0 21 -91 106 -151 140 -87 49 -319 143 -371 149
-59 7 -116 39 -145 82 -30 45 -29 49 12 67 65 27 197 9 328 -46 95 -39 144
-80 153 -126 l7 -35 31 30 c40 39 99 63 145 60 20 -2 63 0 97 5 70 9 124 -3
174 -36 52 -36 57 -50 37 -105 -19 -53 -23 -113 -7 -113 6 0 13 8 17 18 29 87
80 142 132 142 27 0 27 -12 -3 -58 -27 -42 -43 -102 -27 -102 5 0 13 9 16 20
17 53 106 123 128 101 6 -6 42 -11 80 -11 l69 0 -51 -57 c-28 -31 -51 -61 -51
-65 0 -4 21 8 46 27 52 40 83 50 122 40 15 -4 61 -9 102 -11 142 -8 151 -20
40 -53 -84 -26 -144 -74 -173 -140 -25 -57 -25 -132 -1 -167 44 -62 53 -80 49
-94 -6 -20 31 -80 50 -80 26 0 17 47 -30 156 -50 115 -54 149 -24 211 33 68
42 60 41 -32 l-2 -50 16 35 c9 19 20 45 25 57 11 31 66 69 127 88 46 15 86 17
310 13 252 -5 258 -5 325 -32 37 -15 104 -40 150 -55 45 -16 109 -40 142 -53
33 -14 67 -28 76 -31 20 -7 122 -159 149 -223 11 -25 27 -73 35 -107 21 -81
35 -117 47 -117 15 0 0 84 -29 160 -13 36 -31 83 -40 105 -17 45 -88 148 -129
187 -52 48 -340 169 -460 193 -90 18 -497 65 -561 65 -23 0 -60 7 -80 15 -21
8 -130 37 -243 64 -113 28 -281 73 -375 102 l-170 52 -170 2 c-155 1 -174 3
-218 23 -70 34 -168 51 -345 62 -136 7 -172 13 -272 44 -129 40 -299 69 -500
86 -115 9 -144 9 -195 -5 -92 -24 -149 -19 -271 21 -74 25 -135 38 -190 41
-91 6 -201 -4 -188 -17 5 -5 68 -13 139 -19 138 -11 210 -28 288 -68 63 -31
133 -102 142 -142 3 -17 28 -59 53 -92 84 -110 92 -123 92 -143 0 -16 -5 -18
-41 -13 -57 7 -128 45 -243 127 -54 39 -156 98 -225 133 -190 93 -265 173
-235 251 10 27 67 55 138 66 86 14 182 1 348 -45 135 -38 188 -44 188 -20 0 8
-12 18 -27 21 -16 4 -68 18 -118 31 -72 19 -121 25 -245 28 -85 2 -168 2 -185
-1z m1075 -222 c169 -45 249 -88 335 -179 54 -57 67 -65 131 -83 40 -11 107
-35 150 -54 44 -19 104 -44 134 -55 77 -29 216 -153 288 -258 35 -50 30 -63
-27 -63 -87 0 -108 9 -194 87 -45 41 -116 99 -159 129 -59 43 -75 59 -71 74 7
28 -30 35 -177 35 -88 -1 -142 -6 -182 -18 -93 -28 -124 -24 -219 34 -100 61
-244 133 -354 178 -157 64 -152 81 23 82 267 1 262 26 -8 39 -179 10 -220 15
-220 31 0 49 390 63 550 21z m-989 -176 c46 -30 114 -73 151 -97 38 -24 75
-43 83 -41 18 3 140 -51 179 -82 22 -16 51 -25 97 -30 99 -10 161 -31 194 -67
32 -33 112 -89 129 -89 15 0 -53 68 -102 102 -35 24 -92 94 -92 112 0 2 30 -9
68 -25 142 -60 136 -26 -9 51 -106 56 -195 128 -187 152 7 20 41 11 183 -50
168 -71 217 -104 320 -215 67 -74 86 -90 96 -79 37 36 183 -13 282 -96 39 -34
57 -42 105 -47 134 -15 225 -65 350 -193 48 -49 118 -111 156 -137 62 -44 73
-48 120 -46 33 1 76 -7 123 -24 40 -14 87 -25 105 -25 90 -1 248 -61 297 -114
31 -33 23 -40 -29 -26 -84 23 -54 -3 48 -40 34 -13 42 -34 16 -44 -47 -18
-225 11 -286 47 -20 12 -91 55 -158 96 -67 40 -124 71 -127 67 -7 -7 24 -43
184 -212 152 -160 189 -184 142 -92 -11 22 -17 44 -12 48 4 5 58 -7 118 -26
122 -39 202 -57 216 -48 5 3 4 14 -2 26 -6 11 -7 24 -2 29 14 14 133 -35 264
-109 128 -74 149 -82 149 -59 0 21 -39 52 -110 87 -36 18 -101 56 -145 84 -44
29 -93 60 -108 70 -22 13 -27 23 -23 40 3 13 -1 31 -9 42 -24 32 -17 37 41 31
110 -11 244 -102 325 -222 53 -77 66 -115 78 -225 7 -64 6 -77 -8 -88 -37 -30
-156 19 -250 103 -34 30 -64 55 -66 55 -13 0 -1 -21 49 -87 62 -82 96 -164 96
-229 0 -54 -14 -63 -62 -35 -19 12 -59 29 -89 40 -133 45 -190 90 -248 192
-30 55 -122 165 -102 122 15 -31 14 -63 -3 -63 -8 0 -57 27 -109 60 -52 33
-141 81 -198 108 -121 57 -315 184 -410 270 -66 59 -67 59 -118 54 -44 -4 -61
0 -118 28 -86 42 -186 142 -243 241 -67 117 -97 161 -140 209 l-41 45 50 -101
c27 -55 61 -128 75 -163 51 -126 152 -238 267 -297 26 -13 87 -32 137 -43 129
-28 202 -63 202 -96 0 -16 -296 37 -366 66 -64 25 -111 69 -254 237 -186 217
-190 224 -150 237 11 3 20 13 20 21 0 18 -58 54 -87 54 -12 0 -51 15 -87 34
-58 30 -73 34 -119 29 -119 -12 -257 26 -311 86 -27 30 -13 37 41 23 97 -26
59 15 -46 49 -36 12 -76 31 -88 42 -24 22 -59 16 -49 -8 10 -26 -9 -16 -69 36
-56 49 -82 59 -54 21 8 -11 33 -46 56 -79 28 -40 53 -64 75 -72 100 -38 127
-61 71 -61 -46 0 -93 35 -214 163 -65 67 -121 118 -125 114 -5 -4 6 -34 24
-66 18 -32 32 -65 32 -72 0 -22 -138 122 -159 166 -10 22 -46 70 -80 107 -34
36 -61 69 -61 72 0 16 36 1 111 -48z m44 -236 c20 -21 26 -33 18 -41 -7 -7
-18 -1 -37 21 -45 54 -29 70 19 20z m1506 -68 c31 -10 76 -30 100 -44 98 -59
215 -188 129 -143 -16 8 -55 33 -86 55 -51 36 -148 80 -176 80 -10 0 40 -43
78 -66 14 -9 16 -15 8 -24 -17 -17 -120 11 -197 54 -34 18 -95 46 -134 61
-118 44 -95 56 97 50 86 -3 143 -10 181 -23z m-1286 -45 c12 -10 15 -16 6 -21
-16 -10 -51 3 -51 20 0 18 21 18 45 1z m1508 -183 c102 -43 143 -53 342 -79
126 -17 204 -33 232 -46 47 -23 198 -176 228 -232 30 -56 9 -65 -47 -18 l-47
38 -133 5 c-113 5 -146 10 -220 35 -89 31 -117 49 -327 210 -151 116 -159 142
-28 87z m-1670 -59 c-29 -52 -39 -61 -47 -40 -8 22 -33 18 -51 -8 -22 -34 -31
-113 -14 -133 11 -13 10 -17 -2 -25 -24 -15 -34 -4 -37 45 -2 34 4 62 23 104
38 82 60 102 111 102 l43 0 -26 -45z m-74 -381 c14 -54 27 -204 18 -204 -17 0
-74 241 -62 261 12 18 32 -9 44 -57z m-74 -16 c2 -13 11 -53 19 -89 8 -36 31
-103 51 -148 20 -46 34 -85 32 -88 -3 -2 -23 19 -45 49 -43 57 -92 181 -92
234 0 59 24 88 35 42z m-37 -198 c6 -45 21 -84 47 -127 46 -78 41 -103 -8 -38
-55 71 -97 231 -70 259 10 10 19 -17 31 -94z m5574 -78 c12 -15 41 -56 62 -90
32 -50 48 -65 83 -78 52 -20 58 -45 11 -42 -55 5 -45 -23 37 -108 97 -101 121
-142 129 -224 8 -78 25 -135 37 -123 4 4 9 33 11 63 l3 55 24 -49 c31 -64 40
-166 17 -185 -13 -11 -17 -11 -22 3 -11 29 -20 17 -16 -23 2 -21 -1 -42 -7
-45 -6 -4 -11 -3 -11 2 0 5 -9 19 -20 31 -10 13 -26 44 -35 70 -32 88 -43 107
-109 179 -36 39 -68 82 -70 94 -31 151 -42 194 -67 262 -16 44 -47 110 -69
146 -22 36 -40 72 -40 78 0 21 28 13 52 -16z m-2100 -132 c68 -45 137 -148
138 -204 0 -16 -5 -17 -45 -11 -74 11 -169 45 -187 67 -23 26 -25 124 -2 156
20 30 42 28 96 -8z m2471 -256 c18 -20 40 -50 51 -66 18 -29 17 -46 -3 -33
-12 7 -91 120 -91 129 0 13 12 4 43 -30z m-3117 -60 c87 -43 160 -84 162 -91
6 -21 -63 -25 -153 -8 -95 18 -110 24 -195 79 -99 64 -112 76 -98 93 9 11 27
14 69 11 47 -3 86 -18 215 -84z m557 47 c146 -25 174 -33 210 -59 53 -37 126
-126 166 -201 44 -84 80 -271 51 -271 -5 0 -37 40 -70 89 -66 99 -60 94 -210
187 -127 80 -158 96 -172 92 -19 -7 62 -76 141 -122 88 -51 138 -101 208 -206
28 -41 69 -97 92 -125 22 -27 37 -53 32 -58 -4 -4 -50 6 -101 23 -51 17 -116
36 -144 42 -164 34 -328 192 -350 336 -8 55 -36 110 -70 139 -38 33 -31 118
11 151 21 15 9 16 206 -17z m-286 -233 c57 -21 103 -53 103 -72 0 -7 18 -50
40 -95 22 -46 38 -86 35 -89 -3 -3 -27 5 -53 17 -26 13 -71 32 -101 42 -30 11
-69 31 -88 45 -48 37 -93 102 -93 135 0 52 48 57 157 17z m830 -72 c38 -19 87
-39 109 -45 46 -12 80 -54 114 -142 35 -87 58 -126 121 -201 66 -79 87 -115
113 -193 9 -28 36 -86 61 -130 44 -77 54 -105 36 -105 -23 0 -176 122 -268
213 -105 104 -142 158 -183 272 -29 79 -43 92 -35 35 22 -155 136 -335 285
-450 40 -30 94 -72 121 -93 29 -22 49 -45 49 -57 0 -11 -3 -20 -7 -20 -5 0
-59 25 -122 56 -92 46 -126 69 -177 121 -77 79 -154 189 -199 285 -58 124
-130 488 -96 488 6 0 41 -15 78 -34z m2153 -16 c54 -75 84 -185 99 -359 11
-115 5 -194 -10 -156 -4 11 -8 47 -9 80 -1 88 -35 230 -76 315 -41 85 -56 129
-48 141 9 16 22 10 44 -21z m-180 -111 c12 -22 13 -56 1 -63 -8 -6 -61 83 -61
103 0 15 48 -16 60 -40z m319 -56 c36 -138 64 -329 44 -309 -4 4 -21 78 -39
164 -17 86 -35 172 -38 190 -5 19 -4 32 2 32 5 0 19 -35 31 -77z m-152 -15
c25 -32 35 -99 48 -308 14 -230 22 -275 67 -349 l21 -36 -32 30 c-46 42 -69
91 -85 186 -9 52 -22 91 -35 108 -46 57 -95 217 -89 293 l4 43 23 -49 c13 -26
33 -88 45 -138 35 -144 49 -79 21 102 -8 52 -15 103 -15 113 0 20 13 22 27 5z
m-405 -57 c24 -19 70 -96 83 -138 11 -39 -13 -26 -36 20 -21 40 -22 41 -32 20
-6 -13 -14 -23 -19 -23 -11 0 -58 99 -58 123 0 23 31 22 62 -2z m-2220 -85
c40 -13 122 -31 181 -40 136 -22 165 -34 217 -93 56 -64 73 -98 65 -133 -6
-26 -1 -31 69 -76 41 -27 99 -64 130 -82 31 -18 56 -40 56 -48 0 -8 -2 -14 -4
-14 -14 0 -143 44 -189 64 -61 28 -73 25 -50 -10 22 -34 71 -61 125 -69 26 -4
55 -13 65 -21 17 -13 17 -15 -3 -32 -12 -10 -40 -24 -63 -32 -39 -13 -45 -12
-100 15 -32 15 -78 48 -102 73 -24 25 -87 79 -139 120 -126 100 -176 146 -230
211 -24 30 -62 71 -84 90 -22 20 -56 51 -76 68 l-35 32 47 1 c26 0 80 -11 120
-24z m1406 -263 c24 -16 69 -50 98 -77 45 -40 58 -62 84 -130 16 -44 43 -108
60 -141 35 -71 37 -85 10 -60 -20 18 -20 17 -20 -17 0 -49 -11 -99 -20 -93 -5
3 -16 41 -26 85 -9 44 -21 80 -25 80 -5 0 -9 -42 -9 -92 l0 -93 -79 79 c-44
44 -91 100 -105 126 -66 120 -81 360 -24 360 6 0 31 -12 56 -27z m964 -39 c34
-35 56 -80 44 -92 -3 -3 -15 7 -27 21 -25 32 -35 34 -44 6 -6 -18 -10 -15 -35
24 -71 112 -32 138 62 41z m402 -36 c26 -40 24 -63 -4 -63 -22 0 -25 5 -28 43
-3 47 9 55 32 20z m146 -60 c0 -10 -5 -18 -10 -18 -16 0 -34 46 -26 67 7 16 9
16 21 -7 8 -14 14 -33 15 -42z m-552 -45 c14 -26 26 -110 15 -98 -10 10 -33
83 -33 104 0 16 8 14 18 -6z m253 -314 c33 -42 35 -49 13 -49 -12 0 -15 -5 -9
-22 4 -13 9 -53 12 -89 4 -52 1 -72 -12 -93 -28 -43 -16 -143 23 -193 28 -35
82 -166 82 -199 0 -36 -25 -6 -62 75 -27 58 -45 88 -54 84 -8 -3 -17 10 -25
36 -7 22 -20 48 -31 57 -17 16 -18 16 -18 -4 0 -12 -4 -22 -10 -22 -16 0 -12
72 6 91 14 15 13 27 -5 123 -12 59 -21 126 -21 148 l0 41 23 -21 c22 -21 47
-29 47 -15 0 3 -27 55 -60 114 -127 227 -134 285 -14 104 48 -72 99 -146 115
-166z m37 239 c16 -16 15 -38 -2 -38 -18 0 -39 27 -31 40 8 13 18 13 33 -2z
m307 -70 c52 -58 135 -202 135 -234 0 -27 -20 -13 -41 29 -27 51 -94 153 -124
187 -12 14 -30 37 -40 53 -15 23 -15 27 -2 27 8 0 41 -28 72 -62z m-1720 15
c56 -28 134 -94 185 -156 82 -101 123 -192 165 -370 21 -87 35 -160 32 -164
-11 -10 -33 15 -73 83 -43 74 -205 250 -286 310 -29 22 -74 56 -100 75 -62 46
-78 75 -78 143 0 48 4 61 26 82 21 22 31 25 62 19 20 -4 50 -14 67 -22z m-335
-23 c69 -35 102 -97 114 -213 5 -43 22 -88 65 -175 32 -64 62 -128 66 -141 7
-23 6 -24 -26 -17 -19 3 -84 31 -145 61 -229 111 -307 235 -277 435 8 50 11
55 38 61 62 13 126 9 165 -11z m1959 -177 c31 -39 49 -111 66 -268 14 -130 18
-146 55 -218 34 -65 38 -78 25 -84 -23 -8 -61 32 -80 86 -10 28 -20 101 -25
186 -7 129 -10 147 -44 227 -20 48 -36 89 -36 92 0 14 20 4 39 -21z m-97 -59
c17 -37 33 -88 36 -114 4 -44 2 -49 -28 -70 l-33 -23 6 -71 c7 -91 36 -175 87
-247 88 -125 130 -255 150 -455 13 -133 37 -219 60 -219 9 0 16 11 18 28 5 39
28 34 43 -10 10 -31 9 -38 -5 -48 -9 -7 -16 -26 -16 -42 0 -37 -8 -45 -31 -32
-39 20 -86 145 -99 258 -8 73 -9 76 -59 122 -28 26 -51 55 -51 66 0 14 8 10
35 -19 20 -21 37 -38 39 -38 2 0 0 18 -5 41 -11 48 -34 96 -95 193 -24 39 -44
74 -44 78 0 5 11 8 25 8 14 0 25 2 25 5 0 3 -27 57 -60 121 l-61 115 6 177 c6
178 12 242 21 242 3 0 19 -30 36 -66z m-334 -25 c2 -13 12 -48 24 -77 22 -57
20 -67 -10 -58 -25 8 -30 21 -38 102 -6 55 -5 66 7 62 8 -2 15 -15 17 -29z
m-1181 -40 c101 -79 308 -335 360 -446 38 -83 15 -95 -68 -35 -213 153 -269
207 -352 332 -105 156 -68 247 60 149z m1832 9 c58 -149 81 -270 81 -429 0
-120 -12 -169 -41 -169 -28 0 -49 56 -49 128 0 77 -34 268 -65 362 -45 137
-24 133 44 -9 37 -77 47 -91 49 -70 2 15 -8 59 -22 99 -15 41 -26 82 -26 92 0
25 19 23 29 -4z m-263 -237 c6 -26 4 -33 -7 -29 -8 3 -15 21 -17 44 -4 47 14
36 24 -15z m-3464 -37 c-5 -28 -20 -40 -33 -27 -8 8 -8 17 1 33 13 25 36 21
32 -6z m1983 -146 c100 -91 144 -125 220 -171 84 -50 170 -145 151 -165 -9 -9
-118 15 -220 49 -49 16 -91 27 -93 25 -14 -14 114 -91 192 -116 22 -7 57 -21
78 -32 32 -16 38 -23 35 -46 -3 -24 -8 -27 -44 -30 -82 -6 -295 66 -334 112
-17 22 -5 32 17 15 10 -7 7 -1 -7 15 -14 15 -42 37 -63 49 -58 32 -99 124
-105 232 -4 79 -3 85 21 109 41 41 64 34 152 -46z m1611 -70 c42 -50 86 -155
92 -222 8 -88 -16 -69 -55 43 -17 51 -48 119 -67 151 -20 32 -36 63 -36 69 0
18 33 -3 66 -41z m-454 -65 c21 -14 52 -46 68 -72 36 -53 73 -167 68 -208 -3
-24 -9 -16 -45 60 -42 89 -82 152 -90 144 -2 -3 7 -30 21 -61 14 -31 42 -118
62 -194 19 -75 42 -148 49 -162 7 -14 36 -41 64 -60 56 -38 63 -50 28 -50 -41
0 -151 74 -234 158 -46 46 -83 78 -83 72 0 -25 64 -130 116 -191 57 -67 63
-79 40 -79 -29 0 -128 112 -158 178 -45 98 -98 266 -104 325 -5 49 -4 51 11
32 8 -11 30 -65 47 -120 21 -66 33 -92 36 -77 4 28 -40 188 -68 242 -11 22
-20 46 -20 54 0 21 30 35 63 29 18 -4 27 -1 27 7 0 19 58 4 102 -27z m658
-134 c0 -22 7 -56 15 -77 10 -23 14 -50 10 -74 -6 -33 5 -70 51 -175 3 -6 -4
-14 -15 -18 -28 -8 -26 -25 8 -118 47 -125 61 -131 76 -33 8 61 15 77 26 70 5
-3 9 -61 9 -130 0 -122 1 -127 35 -201 19 -42 35 -80 35 -86 0 -18 -41 27 -61
66 -11 20 -22 37 -25 37 -3 0 -18 -9 -32 -21 l-26 -20 -13 63 c-18 91 -67 226
-129 359 -30 63 -54 121 -54 127 0 24 19 11 55 -39 20 -28 39 -49 41 -46 3 3
-2 31 -10 64 -30 113 -33 315 -5 298 5 -4 9 -24 9 -46z m141 -26 l22 -46 -26
-19 c-20 -15 -27 -28 -27 -53 0 -40 -15 -54 -24 -22 -8 30 -8 192 1 200 10 11
30 -12 54 -60z m-1277 38 c10 -11 28 -22 41 -25 13 -3 43 -30 67 -58 23 -29
76 -88 116 -132 40 -43 77 -89 82 -101 5 -13 29 -53 54 -90 47 -68 54 -85 35
-85 -23 0 -69 43 -120 113 -60 82 -99 127 -111 127 -4 0 -8 -11 -8 -23 0 -40
98 -166 228 -295 69 -67 122 -125 119 -128 -19 -19 -164 64 -248 143 -27 25
-52 43 -56 40 -3 -4 2 -25 12 -48 30 -67 113 -132 251 -200 124 -60 147 -82
76 -73 -55 8 -170 43 -177 54 -3 6 -42 10 -87 10 -53 0 -91 5 -114 16 -74 35
-143 146 -178 284 -22 91 -39 308 -31 408 7 87 17 99 49 63z m-165 -127 c46
-41 55 -66 70 -183 17 -135 2 -124 -78 52 -61 136 -69 167 -47 167 9 0 34 -16
55 -36z m1691 -35 c100 -64 133 -99 96 -99 -28 0 -176 82 -200 111 -27 31 -34
59 -16 59 6 0 60 -32 120 -71z m-109 -46 c41 -32 112 -82 157 -112 79 -52 83
-56 98 -110 9 -31 18 -64 21 -75 3 -12 1 -16 -6 -12 -6 4 -11 16 -11 26 0 27
-49 80 -88 97 -19 8 -57 30 -84 49 -28 19 -54 34 -59 34 -18 0 -30 -86 -30
-215 0 -74 -3 -135 -8 -135 -30 0 -44 127 -26 246 6 41 3 60 -13 98 -12 25
-25 46 -30 46 -16 0 -44 76 -37 99 10 33 35 25 116 -36z m-597 16 c14 -17 26
-35 26 -42 0 -13 -48 30 -61 56 -16 28 7 20 35 -14z m-75 -137 c28 -55 54 -75
88 -68 25 5 32 0 70 -52 58 -80 173 -273 173 -290 0 -26 -25 -5 -65 53 -22 32
-86 109 -143 172 -103 114 -162 194 -162 221 0 21 19 4 39 -36z m851 -193 c17
-63 21 -101 18 -163 -4 -76 -44 -253 -55 -242 -3 3 3 68 13 145 l17 139 -41
105 c-47 117 -47 118 -29 136 20 21 52 -28 77 -120z m106 -93 c8 -34 1 -61
-15 -61 -17 0 -35 49 -27 70 9 23 35 17 42 -9z m-785 -60 c77 -50 119 -86 119
-102 0 -21 -10 -17 -43 14 -25 23 -29 24 -24 7 3 -11 15 -67 27 -125 12 -58
23 -113 25 -123 2 -9 -1 -15 -5 -12 -4 3 -18 37 -30 77 -12 40 -36 99 -52 133
-31 60 -87 139 -94 132 -2 -2 9 -33 25 -68 33 -74 81 -221 81 -250 0 -10 -4
-19 -8 -19 -11 0 -29 45 -66 158 -23 72 -43 112 -91 179 -14 20 22 46 56 39
14 -2 50 -21 80 -40z m243 -7 c10 -17 16 -33 13 -36 -8 -8 -47 35 -47 52 0 24
14 17 34 -16z m-408 -18 c17 -74 28 -111 51 -165 24 -57 25 -75 3 -61 -28 17
-90 184 -90 244 0 29 29 16 36 -18z m748 -47 c23 -88 21 -104 -8 -104 -14 0
-28 -4 -31 -10 -12 -19 -25 -10 -25 17 0 14 8 35 18 46 12 13 17 36 17 73 0
65 8 58 29 -22z m-2506 2 c-24 -30 -46 -55 -50 -55 -11 -1 13 73 30 92 8 9 26
17 39 17 22 0 21 -3 -19 -54z m-1280 -139 c24 -41 28 -67 11 -67 -18 0 -51 91
-55 154 l-4 61 13 -55 c7 -31 23 -73 35 -93z m312 84 c13 -25 13 -91 0 -91
-14 0 -30 44 -30 81 0 33 14 38 30 10z m-376 -83 c3 -29 6 -90 6 -135 0 -45 4
-84 9 -87 10 -6 31 45 31 75 0 34 19 20 25 -18 10 -60 12 -63 50 -63 37 0 74
-14 87 -34 29 -42 -14 -144 -79 -189 -33 -22 -50 -26 -133 -28 -92 -3 -95 -3
-98 19 -2 13 -11 26 -20 30 -9 3 -23 12 -30 19 -7 7 -21 13 -31 13 -10 0 -28
12 -42 26 -20 21 -24 35 -23 78 1 29 7 63 14 77 14 26 15 25 25 -34 6 -37 7
-38 43 -35 50 4 62 33 69 168 3 61 9 110 13 110 15 0 20 -33 20 -123 0 -51 4
-99 10 -107 18 -28 30 39 30 166 0 127 12 165 24 72z m4006 -25 c7 -21 10 -54
8 -73 -3 -34 -3 -34 -16 -12 -18 31 -28 122 -14 122 6 0 16 -17 22 -37z m-572
4 c17 -20 26 -67 13 -67 -6 0 -11 2 -11 4 0 2 -7 20 -15 40 -15 35 -8 48 13
23z m232 -42 c14 -43 10 -80 -9 -80 -18 0 -35 59 -27 92 9 33 23 29 36 -12z
m-1142 -9 c28 -15 71 -76 53 -76 -13 0 -105 68 -109 81 -5 14 26 11 56 -5z
m285 -18 c12 -6 57 -44 100 -85 122 -113 266 -204 442 -278 44 -19 43 -20 -30
-30 l-50 -7 64 -22 c36 -12 66 -27 69 -34 10 -30 -165 1 -273 48 -27 12 -75
26 -105 30 -30 5 -76 16 -101 25 -38 14 -46 21 -46 41 0 14 -21 55 -46 92 -73
105 -97 188 -65 220 15 15 14 15 41 0z m172 -44 c74 -69 209 -160 275 -185 64
-24 90 -41 90 -56 0 -16 -5 -16 -71 3 -134 39 -401 232 -383 277 10 27 25 20
89 -39z m175 -39 c48 -25 96 -55 105 -65 18 -19 17 -20 -6 -20 -47 0 -219 95
-219 121 0 18 34 8 120 -36z m-459 -72 c6 -21 20 -49 29 -63 10 -14 29 -47 43
-75 14 -27 64 -92 112 -143 48 -52 84 -96 81 -99 -2 -3 -25 9 -50 27 -46 34
-66 33 -66 -2 0 -24 -38 -102 -80 -162 -16 -24 -65 -69 -107 -99 -43 -30 -93
-71 -111 -91 -32 -36 -52 -40 -52 -10 0 8 -5 14 -11 14 -16 0 -90 -54 -128
-93 -30 -32 -34 -44 -41 -109 -5 -56 -14 -84 -34 -115 -40 -60 -117 -108 -211
-134 -122 -32 -201 -74 -269 -142 -43 -42 -62 -55 -64 -44 -12 59 164 232 317
312 76 40 161 122 161 155 0 11 4 20 10 20 5 0 16 13 25 29 8 16 34 40 57 53
48 26 66 64 26 55 -92 -20 -94 -21 -77 -3 9 9 39 23 68 31 28 7 67 23 87 34
19 12 41 21 49 21 24 0 73 50 96 98 35 74 76 111 93 84 3 -5 -8 -37 -24 -71
-17 -35 -30 -65 -30 -67 0 -2 11 -4 23 -4 46 0 130 103 161 196 9 28 23 60 31
70 8 10 15 26 15 36 0 21 -119 180 -130 173 -5 -3 -16 -30 -25 -61 -21 -71
-79 -132 -155 -161 -109 -41 -291 -95 -298 -88 -12 12 46 54 91 65 119 30 177
52 218 82 39 29 42 33 22 36 -13 2 -23 8 -23 14 0 17 87 173 105 188 8 7 15
25 15 40 0 53 33 55 51 3z m-256 -59 c-40 -105 -102 -200 -121 -182 -3 3 18
53 46 112 81 166 128 210 75 70z m110 39 c-9 -41 -117 -263 -127 -263 -26 0
10 104 74 218 43 74 65 93 53 45z m-215 5 c0 -7 -9 -24 -20 -38 -16 -21 -20
-22 -20 -7 0 23 18 57 30 57 6 0 10 -6 10 -12z m1573 -129 c56 -112 59 -149
23 -290 -43 -168 -103 -289 -145 -289 -21 0 -31 -19 -31 -56 0 -43 -79 -188
-94 -174 -3 3 -1 48 4 100 5 52 12 187 15 300 7 218 20 405 31 433 3 9 12 17
19 17 19 0 35 -104 42 -280 8 -209 21 -163 22 80 1 214 5 247 27 229 11 -9 14
-7 14 11 0 41 25 14 73 -81z m-3373 -5 c0 -65 -27 -101 -106 -140 -48 -23 -58
-25 -79 -14 -13 7 -35 10 -50 8 -34 -7 -39 7 -28 73 8 53 33 81 33 37 1 -78
33 -90 50 -18 14 58 30 75 30 31 0 -35 9 -61 21 -61 5 0 9 11 9 24 0 39 17 74
40 81 11 3 27 20 36 38 16 29 17 30 30 12 8 -10 14 -42 14 -71z m419 -65 c13
-139 14 -249 2 -268 -8 -12 -11 -10 -15 10 -8 36 -12 400 -5 386 4 -7 12 -64
18 -128z m1051 81 c0 -25 -40 -106 -69 -140 l-22 -25 6 35 c17 89 85 194 85
130z m170 -9 c0 -21 -68 -83 -82 -75 -15 9 -8 32 18 63 29 35 64 42 64 12z
m100 -12 c0 -26 -25 -74 -63 -121 -32 -40 -29 -58 9 -58 43 0 25 -20 -48 -54
-111 -50 -154 -108 -192 -260 -19 -75 -36 -116 -60 -135 -13 -11 -14 -9 -6 20
6 19 16 83 24 145 8 61 20 123 27 137 6 14 38 47 71 72 32 25 63 56 68 69 5
13 29 47 54 75 25 28 53 66 62 84 23 44 35 58 45 51 5 -3 9 -14 9 -25z m445
-96 c-13 -73 -66 -130 -156 -167 -54 -22 -179 -56 -179 -48 0 4 41 24 90 46
137 58 157 75 212 175 24 44 42 41 33 -6z m468 -77 c73 -30 158 -82 203 -122
72 -67 23 -74 -63 -10 -98 73 -195 115 -219 95 -15 -12 -39 24 -30 47 8 20 43
17 109 -10z m308 -103 c27 -25 51 -44 53 -42 2 2 11 19 21 38 13 26 19 31 26
20 12 -19 11 -587 -1 -734 -6 -66 -23 -190 -37 -275 -25 -145 -27 -176 -28
-485 -1 -301 -3 -339 -23 -431 -27 -125 -44 -166 -79 -194 -36 -28 -97 -25
-101 6 -2 12 26 161 62 330 36 170 74 374 85 454 21 151 62 527 60 558 -2 43
-29 -54 -49 -178 -49 -305 -74 -439 -135 -715 -35 -159 -76 -354 -89 -432 -14
-79 -30 -151 -35 -161 -7 -13 -26 -21 -63 -26 -29 -3 -91 -17 -137 -31 -47
-14 -88 -25 -91 -25 -13 0 -30 52 -30 89 0 21 18 126 40 232 22 107 40 206 40
222 0 71 184 740 251 916 166 433 279 749 279 782 0 11 -20 33 -50 55 -47 34
-59 52 -43 67 12 13 24 7 74 -40z m-591 9 c0 -12 -30 -52 -40 -52 -5 0 -4 14
1 30 10 26 39 43 39 22z m208 -62 c12 -22 27 -40 33 -40 5 0 17 -17 26 -37 8
-21 30 -63 49 -93 23 -38 32 -62 28 -77 -9 -34 -31 -28 -44 13 -7 21 -21 39
-35 44 -17 6 -28 22 -35 50 -26 95 -48 113 -75 60 -22 -42 -35 -29 -35 36 0
40 5 59 20 74 25 25 40 19 68 -30z m198 -32 c41 -39 72 -73 69 -76 -2 -2 -19
1 -37 7 -28 10 -35 9 -45 -5 -12 -16 -14 -16 -34 2 -40 36 -72 118 -52 137 13
14 27 5 99 -65z m-1021 33 c-16 -14 -149 -70 -155 -64 -13 13 99 72 140 73 14
0 20 -4 15 -9z m1719 -88 c3 -16 9 -71 12 -123 8 -118 -7 -199 -45 -243 -15
-18 -33 -47 -40 -65 -29 -71 -34 -48 -28 124 3 93 9 178 13 188 12 31 22 -2
29 -101 4 -51 11 -95 15 -98 11 -7 20 101 20 231 0 108 11 147 24 87z m-1018
-75 c0 -50 7 -96 24 -148 13 -41 24 -99 24 -127 0 -57 16 -70 42 -35 13 16 13
16 13 -3 0 -11 -6 -47 -14 -80 -8 -33 -19 -105 -25 -160 -16 -153 -20 -172
-31 -153 -21 37 -21 152 0 232 25 93 25 105 8 120 -7 6 -19 40 -26 76 -7 35
-24 100 -37 143 -25 78 -25 78 -55 72 l-30 -7 20 40 c22 43 68 102 80 102 5 0
8 -33 7 -72z m-806 36 c0 -10 -124 -163 -132 -164 -12 0 -9 27 6 64 21 50 74
106 102 106 13 0 24 -3 24 -6z m499 -130 c-30 -32 -88 -68 -96 -60 -12 12 70
86 96 86 l24 0 -24 -26z m55 -56 c-3 -13 -13 -35 -21 -51 -17 -33 -144 -170
-151 -162 -11 10 151 235 169 235 6 0 7 -9 3 -22z m551 -84 c-9 -51 -29 -43
-21 8 4 22 10 46 14 52 10 17 15 -21 7 -60z m-91 -104 c-10 -35 -19 -59 -22
-52 -5 15 16 151 26 166 15 24 13 -52 -4 -114z m646 65 c0 -66 -19 -145 -36
-145 -30 0 -30 93 1 167 19 44 35 34 35 -22z m-1751 -31 c-25 -26 -126 -80
-135 -71 -3 2 10 14 29 26 18 11 53 36 78 56 47 37 66 30 28 -11z m298 -73
c-8 -131 -44 -198 -128 -241 -20 -11 -57 -35 -83 -55 -46 -35 -49 -36 -67 -19
-18 16 -22 16 -55 1 -43 -21 -58 -21 -74 -2 -14 17 -8 21 122 60 48 15 109 41
135 58 47 31 47 32 20 35 -35 4 -216 -51 -280 -86 -49 -26 -69 -24 -51 6 15
25 88 57 188 81 143 35 163 51 222 174 20 42 41 77 47 77 6 0 8 -32 4 -89z
m543 31 c0 -77 -24 -155 -60 -195 -38 -41 -40 -17 -5 53 13 26 27 68 30 92 13
93 16 108 25 108 6 0 10 -26 10 -58z m-82 6 c-3 -22 -64 -66 -75 -54 -3 3 6
21 21 41 31 40 59 47 54 13z m-265 -166 c-103 -159 -109 -170 -137 -254 -19
-56 -28 -107 -32 -185 -6 -131 -12 -163 -24 -143 -29 47 -17 255 21 359 12 31
30 83 42 115 16 47 38 77 106 149 47 49 87 84 89 78 2 -6 -27 -60 -65 -119z
m1127 90 c0 -25 -25 -58 -34 -44 -8 13 10 62 24 62 5 0 10 -8 10 -18z m-944
-97 c7 -17 -3 -33 -108 -171 -37 -49 -86 -125 -108 -169 -37 -74 -42 -91 -55
-220 -8 -77 -15 -142 -16 -145 0 -3 -4 4 -9 15 -12 28 -12 148 0 224 16 94 88
220 201 352 35 40 49 65 49 86 0 16 3 33 7 36 12 12 33 7 39 -8z m179 -85 c16
-26 -36 -211 -74 -260 -32 -41 -37 -13 -7 47 15 31 30 79 33 107 9 91 29 136
48 106z m-1047 -112 c-23 -34 -85 -81 -100 -76 -17 7 73 98 97 98 16 0 16 -2
3 -22z m379 -45 c3 -7 -13 -21 -35 -32 -51 -26 -105 -100 -149 -203 -43 -104
-72 -156 -90 -163 -9 -3 -13 0 -9 7 2 7 21 65 41 128 46 144 49 150 98 200 67
70 133 99 144 63z m539 -38 c-3 -13 -28 -52 -54 -87 -52 -70 -92 -153 -100
-210 -6 -47 -18 -49 -28 -5 -16 68 -4 96 97 234 69 93 97 115 85 68z m-476
-30 c0 -18 -45 -49 -60 -40 -17 11 -11 24 18 39 35 19 42 19 42 1z m450 -238
c0 -10 -60 -179 -69 -194 -9 -15 -10 -14 -11 13 0 61 47 184 71 184 5 0 9 -1
9 -3z m165 -105 c-14 -39 -28 -95 -31 -124 -3 -29 -12 -64 -21 -77 l-16 -24
-17 23 -17 22 -23 -48 c-12 -27 -35 -100 -50 -162 -16 -63 -31 -116 -34 -119
-16 -17 -19 17 -8 111 13 122 36 188 90 259 22 29 54 80 72 112 76 136 98 147
55 27z m-555 3 c0 -26 -41 -124 -61 -147 -12 -13 -19 -16 -16 -8 2 8 12 42 22
75 9 33 21 68 26 78 12 21 29 22 29 2z m120 -447 c-14 -119 -38 -207 -87 -311
-21 -45 -37 -87 -35 -94 3 -12 -44 -113 -53 -113 -2 0 -1 16 2 35 5 31 3 35
-16 35 -31 0 -26 19 20 80 77 103 103 178 140 410 11 74 24 140 28 145 12 19
13 -89 1 -187z m-190 162 c0 -5 -9 -19 -21 -31 -29 -29 -51 -9 -24 21 19 21
45 27 45 10z m-3456 -75 c3 -10 19 -15 44 -15 21 0 47 -7 58 -16 17 -14 13
-15 -62 -11 -96 4 -112 11 -88 38 21 23 40 24 48 4z m3814 -52 c-10 -90 -87
-249 -136 -281 -21 -14 -20 -10 12 49 19 35 46 106 60 157 14 52 30 100 37
108 22 27 32 15 27 -33z m-262 -56 c-4 -22 -18 -62 -32 -88 -26 -47 -99 -127
-109 -118 -2 3 11 30 29 60 19 30 44 86 56 124 13 39 27 76 33 83 17 22 30
-14 23 -61z m-3705 37 c7 -9 25 -21 39 -26 25 -11 25 -11 -12 -19 -21 -5 -81
-34 -135 -65 -135 -78 -410 -212 -451 -220 -27 -5 -36 -2 -47 14 -8 11 -27 23
-42 27 -25 6 -26 8 -10 17 12 6 28 6 49 -1 46 -16 66 -14 93 13 15 15 31 22
47 19 26 -5 234 93 264 125 11 11 39 25 64 32 58 15 90 36 90 58 0 18 18 42
31 42 4 0 13 -7 20 -16z m3605 -10 c5 -18 -4 -46 -29 -98 -37 -73 -86 -129
-231 -264 -76 -71 -100 -115 -116 -217 -16 -107 -21 -126 -31 -119 -13 7 -11
160 2 209 21 76 66 132 154 190 46 30 99 74 119 98 40 49 75 121 76 154 0 62
43 99 56 47z m-256 -106 c0 -6 -28 -41 -63 -77 -48 -51 -70 -85 -93 -141 -31
-79 -47 -93 -52 -47 -4 35 38 126 89 195 55 72 119 110 119 70z m-3285 -17
c-37 -36 -581 -262 -843 -351 -173 -58 -395 -120 -431 -120 l-25 0 22 16 c12
8 47 22 77 30 68 17 140 53 109 54 -11 0 -74 -13 -140 -30 -124 -30 -224 -47
-224 -37 0 16 306 87 453 105 65 9 81 14 98 36 11 14 25 26 31 26 5 0 41 14
79 31 79 34 129 37 65 3 -49 -25 -61 -47 -19 -34 54 16 289 108 423 165 192
82 302 124 325 125 19 0 19 0 0 -19z m-934 -136 c0 -5 -7 -12 -16 -13 -23 -5
-47 6 -40 19 8 13 56 8 56 -6z m169 -21 c0 -24 -444 -170 -606 -198 -87 -16
-183 -21 -172 -11 3 3 101 30 219 59 209 53 530 143 538 152 6 6 21 5 21 -2z
m4677 -20 c8 -22 -22 -124 -57 -194 -29 -58 -58 -91 -46 -54 3 11 16 62 30
114 30 117 42 150 56 150 6 0 13 -7 17 -16z m-5243 -14 c-9 -9 -159 -30 -218
-30 -55 0 -14 15 72 26 114 15 159 17 146 4z m153 -34 c-42 -32 -260 -76 -367
-75 -54 1 -54 1 -20 11 38 11 365 75 390 77 12 0 11 -3 -3 -13z m4973 -103 c0
-48 -84 -136 -174 -184 -34 -18 -87 -57 -119 -87 -31 -31 -60 -53 -63 -50 -11
12 61 80 161 153 74 54 113 90 139 130 38 56 56 69 56 38z m-341 -126 c-28
-90 -49 -124 -49 -78 0 52 -45 17 -80 -62 -27 -60 -37 -182 -18 -216 18 -32
32 -31 38 4 3 15 11 30 19 33 19 6 10 -97 -13 -152 -13 -32 -18 -36 -31 -26
-20 16 -55 113 -66 184 -13 77 4 187 36 242 22 37 39 49 97 68 10 3 24 20 32
39 12 29 54 72 62 64 2 -2 -10 -47 -27 -100z m526 -61 c-14 -36 -30 -93 -36
-127 -12 -77 -28 -107 -75 -149 -50 -44 -100 -65 -214 -89 -125 -28 -179 -55
-207 -106 l-23 -40 0 31 c0 67 61 109 218 150 167 44 208 80 278 250 48 117
76 172 81 157 2 -6 -8 -41 -22 -77z m-110 -33 c-3 -20 -21 -51 -40 -72 -19
-20 -44 -49 -56 -64 -22 -30 -87 -67 -116 -67 -11 0 13 30 67 83 47 45 98 105
114 132 30 53 43 48 31 -12z m-4355 18 c0 -33 -368 -178 -385 -152 -8 13 169
90 355 154 23 8 30 8 30 -2z m4218 -68 c-2 -9 -35 -39 -75 -65 -48 -33 -89
-72 -125 -119 -53 -70 -53 -71 -56 -40 -4 39 46 111 121 174 64 54 85 66 115
67 17 0 23 -5 20 -17z m322 -144 c-23 -60 -46 -96 -56 -86 -4 3 -4 16 -1 29 8
29 66 122 73 115 3 -2 -5 -29 -16 -58z m-412 -213 c2 -10 -23 -42 -65 -84 -38
-37 -76 -78 -85 -92 l-17 -25 0 31 c-1 38 42 107 98 157 44 39 64 43 69 13z
m192 -25 c0 -64 -158 -276 -186 -248 -3 3 3 26 15 51 11 25 16 48 12 50 -4 3
-27 -11 -50 -30 -46 -36 -61 -41 -61 -22 0 20 79 87 138 117 31 16 70 43 86
60 30 31 46 39 46 22z m-4773 -223 c-2 -13 -4 -3 -4 22 0 25 2 35 4 23 2 -13
2 -33 0 -45z m4713 1 c0 -27 -35 -81 -61 -95 -37 -19 -37 -7 2 56 28 46 59 66
59 39z m-26 -173 c-16 -25 -44 -36 -44 -17 0 5 12 24 27 42 21 25 29 29 31 16
2 -8 -4 -27 -14 -41z m-4555 -996 c0 -40 -3 -49 -9 -35 -12 29 -12 124 0 105
5 -8 9 -40 9 -70z m71 -327 c0 -35 -3 -44 -11 -36 -7 7 -9 25 -5 47 9 50 16
45 16 -11z m5160 -736 c0 -8 -17 -19 -37 -26 -21 -7 -44 -15 -52 -18 -28 -12
1 18 37 37 44 23 52 24 52 7z m-226 -18 c-8 -14 -143 -79 -163 -79 -27 0 3 19
85 55 90 39 88 39 78 24z m-1242 -392 c-27 -29 -131 -92 -139 -84 -5 5 144
107 156 107 3 0 -5 -10 -17 -23z m-1902 -966 c39 -8 52 -34 23 -46 -10 -5 -79
-10 -154 -13 -129 -4 -224 6 -259 28 -33 20 6 22 130 5 72 -10 133 -15 136
-12 11 11 -7 27 -30 27 -12 0 -31 7 -42 15 -17 14 -11 15 71 9 50 -3 106 -9
125 -13z m-560 -19 c0 -4 -30 -18 -68 -30 -94 -30 -345 -93 -350 -87 -6 6 23
17 160 59 222 69 258 77 258 58z"/>
<path d="M2910 11702 c0 -14 61 -102 71 -102 15 0 10 14 -21 63 -27 42 -50 60
-50 39z"/>
<path d="M3100 11652 c0 -38 79 -182 101 -182 29 0 -15 103 -75 175 -24 29
-25 29 -26 7z"/>
<path d="M7124 10746 c-8 -22 16 -74 63 -138 34 -46 63 -62 63 -35 0 26 -59
133 -89 161 -27 26 -31 27 -37 12z"/>
<path d="M4620 10702 c0 -12 63 -92 72 -92 17 0 6 31 -23 65 -30 34 -49 44
-49 27z"/>
<path d="M4950 10001 c0 -15 203 -101 236 -101 26 0 14 20 -23 38 -65 33 -213
76 -213 63z"/>
<path d="M5016 9861 c12 -13 198 -90 203 -85 11 10 -37 45 -95 68 -64 26 -127
35 -108 17z"/>
<path d="M6217 9623 c2 -21 12 -60 21 -88 17 -49 17 -49 20 -17 4 37 -24 142
-38 142 -5 0 -6 -17 -3 -37z"/>
<path d="M6322 9455 c2 -41 7 -69 13 -67 14 4 10 111 -4 125 -9 9 -11 -4 -9
-58z"/>
<path d="M7961 8868 c0 -24 4 -61 8 -83 8 -35 9 -31 10 37 0 42 -3 80 -9 83
-6 4 -10 -11 -9 -37z"/>
<path d="M6212 8608 c5 -18 185 -108 215 -108 40 0 12 25 -55 50 -32 12 -77
32 -101 46 -49 27 -64 30 -59 12z"/>
<path d="M7254 8517 c-9 -24 77 -262 105 -290 13 -13 31 6 31 34 0 53 -72 219
-111 255 -17 15 -19 15 -25 1z"/>
<path d="M6896 8264 c-39 -101 83 -400 185 -455 38 -20 28 12 -22 68 -28 32
-62 79 -75 105 -28 55 -54 156 -54 213 0 71 -19 108 -34 69z"/>
<path d="M7470 7330 c0 -22 137 -116 198 -134 44 -14 21 11 -60 66 -114 76
-138 88 -138 68z"/>
<path d="M6731 6416 c-12 -13 -64 -45 -116 -71 -85 -43 -144 -85 -118 -85 29
0 144 43 186 69 54 35 108 111 79 111 -5 0 -19 -11 -31 -24z"/>
<path d="M8356 7168 c-10 -174 -14 -392 -6 -378 30 56 50 434 24 460 -9 9 -13
-11 -18 -82z"/>
<path d="M8048 6784 c-5 -4 -8 -32 -7 -63 0 -47 2 -52 10 -31 11 27 8 106 -3
94z"/>
<path d="M8007 6504 c-3 -5 -47 -206 -97 -444 -50 -239 -122 -577 -160 -750
-80 -370 -85 -399 -71 -385 12 12 106 366 155 582 44 197 105 509 151 778 33
191 39 246 22 219z"/>
<path d="M7896 6388 c-17 -40 -22 -113 -7 -103 13 7 35 108 28 126 -3 9 -11 0
-21 -23z"/>
<path d="M7766 6019 c-2 -8 -14 -43 -25 -79 -33 -103 -101 -381 -100 -410 0
-23 1 -23 10 -5 13 29 129 498 124 503 -3 3 -7 -1 -9 -9z"/>
<path d="M4477 11853 c-12 -11 -8 -63 9 -120 16 -54 16 -57 -6 -103 -12 -26
-20 -53 -16 -59 11 -17 34 -1 45 31 12 33 15 216 5 242 -6 16 -26 21 -37 9z"/>
<path d="M5135 11801 c3 -5 31 -15 61 -22 100 -22 158 -80 170 -169 13 -99 48
-89 41 12 -3 46 -9 65 -33 95 -46 58 -117 92 -187 93 -34 0 -56 -4 -52 -9z"/>
<path d="M2000 11593 c0 -10 25 -49 56 -88 74 -92 92 -129 108 -225 17 -93 47
-151 119 -227 82 -87 93 -66 18 36 -27 36 -63 95 -80 130 -27 57 -31 75 -31
149 0 84 0 84 -40 132 -37 44 -122 110 -142 110 -4 0 -8 -8 -8 -17z"/>
<path d="M2362 11386 c3 -101 7 -128 23 -152 l20 -29 3 45 c4 44 -15 219 -25
247 -3 7 -10 13 -15 13 -7 0 -9 -44 -6 -124z"/>
<path d="M6084 11453 c22 -44 126 -137 184 -166 30 -15 72 -43 95 -63 40 -35
98 -58 175 -71 45 -7 42 14 -10 59 -38 33 -40 37 -21 38 33 0 120 -41 212
-100 45 -29 84 -51 86 -49 2 2 -38 47 -88 99 -82 84 -101 98 -177 131 -47 20
-123 60 -169 88 -46 28 -90 51 -97 51 -45 0 -6 -50 83 -106 64 -40 103 -73
103 -86 0 -4 -15 -8 -34 -8 -36 0 -69 19 -160 94 -31 25 -62 46 -69 46 -7 0
-36 16 -64 35 -29 19 -55 35 -58 35 -3 0 1 -12 9 -27z"/>
<path d="M2480 11339 c0 -90 15 -156 57 -251 28 -63 39 -71 49 -34 7 28 -7 59
-44 98 -22 24 -26 40 -34 140 -11 139 -28 168 -28 47z"/>
<path d="M2567 11346 c-10 -25 -8 -148 2 -164 6 -10 10 -8 14 10 9 31 7 128
-2 152 -7 18 -8 18 -14 2z"/>
<path d="M5542 11335 c-12 -15 -31 -58 -43 -94 -24 -76 -38 -231 -21 -231 6 0
14 17 17 38 22 150 49 232 75 232 18 0 30 -49 30 -121 0 -44 4 -68 10 -64 13
8 13 139 0 187 -6 20 -19 46 -28 59 l-18 22 -22 -28z"/>
<path d="M2740 11255 c-25 -66 -41 -287 -22 -299 8 -5 52 246 52 297 0 34 -17
35 -30 2z"/>
<path d="M5981 11220 c-6 -28 -11 -62 -11 -76 0 -13 -7 -27 -15 -31 -35 -13
-62 -113 -31 -113 20 0 62 57 81 109 20 57 20 161 1 161 -9 0 -18 -19 -25 -50z"/>
<path d="M3350 11111 c0 -16 50 -46 135 -79 44 -18 107 -50 140 -72 58 -39 85
-49 85 -32 0 25 -115 96 -245 150 -92 39 -115 46 -115 33z"/>
<path d="M6684 11068 c20 -24 48 -63 63 -88 14 -25 41 -66 60 -91 61 -86 85
-151 93 -261 4 -55 13 -105 18 -110 16 -16 32 0 32 31 0 55 -60 324 -80 356
-24 39 -195 205 -211 205 -6 0 5 -19 25 -42z"/>
<path d="M5570 10987 c0 -61 35 -178 84 -283 45 -95 127 -215 134 -195 2 6
-33 85 -78 174 -67 131 -85 177 -96 242 -17 94 -20 105 -34 105 -5 0 -10 -19
-10 -43z"/>
<path d="M6606 11021 c-7 -10 39 -140 54 -155 21 -21 21 6 1 72 -21 69 -43
103 -55 83z"/>
<path d="M6878 10985 c23 -45 51 -84 52 -72 0 15 -39 83 -56 98 -14 11 -13 7
4 -26z"/>
<path d="M3231 10894 c-31 -42 -36 -64 -12 -49 13 8 54 85 48 91 -2 2 -18 -17
-36 -42z"/>
<path d="M3510 10861 c-14 -34 -10 -73 7 -78 11 -4 33 54 33 90 0 27 -26 20
-40 -12z"/>
<path d="M5514 10836 c-21 -54 28 -272 64 -284 21 -6 14 43 -13 94 -19 36 -25
62 -25 113 0 71 -13 110 -26 77z"/>
<path d="M6778 10746 c-7 -58 7 -205 20 -218 6 -6 16 -7 22 -3 22 13 -5 245
-30 260 -4 3 -10 -15 -12 -39z"/>
<path d="M2880 10764 c0 -14 63 -124 72 -124 11 0 -15 62 -42 101 -21 28 -30
35 -30 23z"/>
<path d="M3420 10744 c-6 -14 -10 -55 -9 -92 l1 -67 15 35 c20 45 30 150 14
150 -6 0 -16 -12 -21 -26z"/>
<path d="M6547 10764 c-10 -11 -9 -112 2 -118 5 -3 12 1 15 10 13 35 0 124
-17 108z"/>
<path d="M1630 10681 c-52 -19 -80 -42 -80 -67 0 -21 22 -28 32 -10 5 9 24 22
41 30 37 15 147 36 198 37 l34 1 -30 13 c-42 20 -131 18 -195 -4z"/>
<path d="M5945 10657 c-9 -21 -2 -134 9 -144 25 -26 37 109 12 143 -14 18 -15
18 -21 1z"/>
<path d="M6017 10587 c-5 -52 -43 -157 -56 -157 -3 0 -19 24 -35 53 -31 55
-64 97 -78 97 -20 0 -5 -58 30 -114 22 -34 45 -84 51 -113 15 -63 35 -84 50
-54 6 11 11 32 11 48 0 15 12 53 27 83 20 42 27 71 27 122 1 86 -19 112 -27
35z"/>
<path d="M6827 10406 c4 -24 2 -36 -6 -36 -6 0 -11 5 -11 10 0 6 -4 10 -10 10
-13 0 -13 -85 0 -132 7 -25 21 -43 45 -56 26 -16 35 -29 40 -59 18 -110 28
-145 55 -187 28 -43 50 -59 50 -36 0 6 -11 36 -24 68 -32 75 -52 148 -71 252
-19 104 -42 175 -60 190 -12 10 -13 6 -8 -24z"/>
<path d="M1640 10232 c0 -13 28 -22 210 -66 80 -20 192 -54 249 -76 102 -40
151 -47 158 -23 9 27 -421 162 -544 170 -48 4 -73 2 -73 -5z"/>
<path d="M5710 10203 c0 -13 77 -130 91 -138 16 -10 10 8 -20 60 -29 51 -71
97 -71 78z"/>
<path d="M5850 10175 c0 -8 20 -44 45 -81 25 -36 45 -76 45 -88 0 -13 7 -30
16 -37 15 -12 16 -10 9 21 -11 50 -42 130 -65 168 -20 33 -50 43 -50 17z"/>
<path d="M4447 10153 c-11 -18 -18 -74 -12 -93 9 -30 32 -24 40 10 11 50 -11
113 -28 83z"/>
<path d="M4530 10025 c0 -30 5 -86 12 -125 9 -52 9 -73 1 -81 -9 -9 -15 -3
-26 22 l-14 34 -27 -81 c-15 -45 -33 -90 -41 -100 -18 -24 -19 -44 -2 -44 20
0 116 69 174 124 42 42 53 59 53 84 0 33 -16 42 -37 21 -22 -22 -49 44 -68
164 -9 56 -25 45 -25 -18z"/>
<path d="M6430 10075 c0 -4 8 -20 17 -38 17 -30 18 -31 21 -9 5 32 -4 52 -23
52 -8 0 -15 -2 -15 -5z"/>
<path d="M6357 10013 c-4 -3 -7 -19 -7 -35 0 -23 4 -29 18 -26 21 4 28 41 9
56 -8 7 -17 9 -20 5z"/>
<path d="M6686 9919 c-8 -79 -8 -177 1 -208 13 -48 22 9 22 142 1 133 -12 170
-23 66z"/>
<path d="M4355 9930 c-8 -14 25 -170 36 -170 18 0 13 100 -7 148 -14 34 -19
38 -29 22z"/>
<path d="M6572 9870 c0 -19 2 -27 5 -17 2 9 2 25 0 35 -3 9 -5 1 -5 -18z"/>
<path d="M1600 9758 c0 -7 7 -38 15 -68 20 -73 19 -96 -5 -120 -20 -20 -20
-20 -39 18 -10 20 -25 56 -32 80 -7 23 -18 47 -26 53 -22 19 -27 -16 -9 -61
22 -56 21 -70 -9 -70 -23 0 -25 -3 -19 -27 4 -16 22 -68 40 -117 39 -102 38
-96 19 -96 -8 0 -15 -9 -15 -20 0 -12 -10 -24 -24 -30 -21 -8 -24 -13 -19 -48
4 -28 -1 -50 -16 -80 -12 -23 -30 -80 -41 -126 -11 -46 -30 -105 -41 -131 -37
-84 -17 -83 73 5 49 47 91 80 103 80 25 0 60 -30 110 -93 52 -65 80 -78 190
-84 l92 -6 7 -83 c11 -136 40 -192 122 -240 75 -44 115 -35 381 86 84 39 103
33 103 -31 0 -40 17 -61 30 -38 7 10 11 10 24 0 22 -19 36 -5 36 36 0 29 3 34
18 28 31 -12 36 -10 40 13 3 21 22 32 22 12 0 -25 41 -50 83 -50 118 1 312
160 373 306 23 55 2 40 -65 -46 -34 -44 -66 -80 -71 -80 -4 0 -1 18 7 39 l15
39 -65 62 c-36 34 -80 82 -96 107 -23 34 -55 60 -133 107 -57 34 -176 110
-266 168 -254 166 -351 196 -604 184 -172 -8 -157 -18 -208 128 -18 49 -42
113 -55 141 -23 52 -45 78 -45 53z m646 -482 c166 -87 313 -200 290 -223 -4
-4 -16 -2 -26 5 -28 17 -31 15 -24 -13 3 -14 3 -25 -1 -25 -11 0 -165 113
-165 121 0 4 12 11 26 16 l27 9 -40 32 c-52 41 -153 88 -220 103 -29 7 -59 19
-66 27 -10 13 -5 15 41 9 37 -4 86 -23 158 -61z m-146 -26 c0 -11 -60 -11
-105 0 -23 6 -15 8 38 9 39 1 67 -3 67 -9z m90 -76 l25 -13 -33 -1 c-33 0
-102 24 -102 35 0 10 82 -6 110 -21z m-42 -120 c90 -30 221 -95 246 -123 27
-30 9 -26 -75 14 -81 39 -99 42 -99 20 0 -12 -9 -11 -54 5 -30 12 -73 24 -96
28 -51 9 -57 26 -12 30 38 4 39 25 1 30 -38 5 -51 11 -44 22 7 12 32 7 133
-26z m456 -74 c58 -24 61 -45 6 -37 -40 5 -100 40 -100 59 0 12 32 5 94 -22z
m154 -32 c12 -27 27 -48 33 -48 6 0 23 -13 38 -29 16 -17 41 -33 57 -36 16 -4
40 -12 54 -18 23 -11 22 -12 -24 -15 -45 -3 -117 14 -194 45 -26 11 -31 17
-23 27 8 10 7 23 -4 50 -12 28 -13 41 -5 57 17 31 43 19 68 -33z m-535 -171
c8 -13 30 -28 49 -33 67 -19 40 -79 -59 -131 -111 -59 -152 -53 -192 30 -40
83 -17 140 55 136 16 -2 40 1 53 5 16 6 26 4 33 -5 7 -12 11 -11 21 4 16 22
22 22 40 -6z m372 -2 c0 -33 -58 -33 -97 0 l-31 26 64 -3 c56 -3 64 -5 64 -23z
m354 -41 c7 -6 -64 -64 -74 -61 -5 2 -12 18 -16 35 -5 26 -3 32 15 35 20 4 66
-2 75 -9z m-529 -116 c-69 -56 -215 -117 -279 -118 -51 0 -24 24 57 51 37 12
105 39 152 60 88 39 113 42 70 7z"/>
<path d="M4590 9659 c-65 -35 -93 -59 -69 -59 19 0 129 69 129 81 0 12 3 13
-60 -22z"/>
<path d="M6714 9566 c-39 -34 -43 -58 -6 -35 18 11 59 69 49 69 -2 0 -21 -15
-43 -34z"/>
<path d="M6970 9530 c0 -8 4 -30 10 -48 5 -19 16 -95 25 -170 25 -216 50 -313
75 -297 10 6 8 35 -16 170 -7 44 -18 122 -23 172 -7 78 -13 100 -40 140 -17
27 -31 41 -31 33z"/>
<path d="M4521 9504 c-35 -29 -38 -39 -15 -48 16 -6 74 43 74 63 0 19 -27 12
-59 -15z"/>
<path d="M4821 9470 c-17 -22 -38 -57 -45 -78 -7 -20 -28 -59 -45 -87 -33 -53
-41 -95 -16 -95 22 0 61 65 95 159 17 46 37 96 46 112 21 42 3 36 -35 -11z"/>
<path d="M5042 9455 c-41 -35 -82 -119 -82 -170 0 -23 -5 -46 -11 -52 -8 -8
-7 -13 1 -18 19 -12 48 26 80 104 17 40 39 86 51 102 20 29 20 59 0 59 -5 0
-23 -11 -39 -25z"/>
<path d="M4335 9373 c-54 -62 -63 -78 -38 -64 19 10 93 94 93 105 0 15 -18 1
-55 -41z"/>
<path d="M4599 9303 c-51 -43 -111 -125 -100 -136 13 -13 44 10 102 79 67 79
66 114 -2 57z"/>
<path d="M5083 9112 c-60 -48 -163 -161 -163 -179 0 -30 31 -7 132 99 59 62
108 114 108 116 1 13 -37 -5 -77 -36z"/>
<path d="M5232 9009 c-24 -12 -62 -44 -85 -70 -63 -73 -88 -81 -262 -89 -148
-6 -151 -6 -210 -40 -40 -23 -79 -37 -119 -41 -65 -8 -109 -34 -114 -68 -5
-33 19 -35 146 -12 64 11 169 25 232 31 248 24 305 37 337 79 13 17 17 51 7
51 -3 0 -17 -9 -31 -20 -14 -11 -49 -27 -77 -36 -63 -19 -255 -30 -276 -15
-30 22 11 32 100 25 109 -8 151 4 220 61 30 26 78 58 105 72 70 36 105 62 105
79 0 20 -28 17 -78 -7z"/>
<path d="M3392 8943 c-38 -48 -142 -209 -142 -219 0 -28 121 130 164 214 25
48 14 50 -22 5z"/>
<path d="M3467 8888 c-30 -40 -91 -108 -136 -152 -76 -74 -93 -96 -73 -96 14
0 84 55 123 96 74 79 159 208 145 221 -2 3 -29 -28 -59 -69z"/>
<path d="M5474 8841 c-76 -56 -99 -88 -99 -138 0 -43 -2 -47 -29 -54 -51 -14
-137 -113 -121 -139 13 -21 34 -8 68 39 37 51 102 91 150 91 14 0 55 -7 92
-15 50 -12 70 -13 86 -4 16 8 28 8 46 0 29 -13 153 -15 153 -2 0 5 -24 15 -54
22 -77 17 -86 25 -57 48 23 18 23 18 -59 25 -122 10 -128 20 -30 55 33 12 60
26 60 32 0 14 -15 11 -112 -22 -49 -17 -92 -29 -95 -26 -11 12 34 73 65 86 18
8 32 18 32 23 0 19 -60 6 -96 -21z"/>
<path d="M3170 8675 c-25 -14 -53 -25 -63 -25 -23 0 -57 -18 -57 -30 0 -16 94
-11 118 6 18 12 60 75 50 74 -2 -1 -23 -12 -48 -25z"/>
<path d="M2507 8584 c-11 -11 -8 -104 3 -104 13 0 23 61 13 88 -5 13 -12 20
-16 16z"/>
<path d="M4498 8540 c-152 -32 -293 -130 -187 -130 16 0 47 9 68 20 41 20 51
18 51 -12 0 -10 4 -18 8 -18 15 0 52 46 52 63 0 9 4 17 10 17 13 0 30 -34 30
-61 0 -19 6 -16 50 25 27 25 54 46 60 46 7 0 9 -18 4 -52 l-6 -53 42 48 c53
60 73 71 101 57 32 -18 71 -4 67 23 -7 47 -188 61 -350 27z"/>
<path d="M5110 8424 c-115 -29 -131 -35 -124 -46 4 -6 37 -9 90 -6 85 4 124
22 124 55 0 16 -18 15 -90 -3z"/>
<path d="M4112 8251 c-9 -5 1 -13 30 -25 53 -21 148 -33 148 -18 0 23 -151 60
-178 43z"/>
<path d="M5490 8247 c0 -28 150 -82 164 -59 7 12 -81 56 -131 67 -26 5 -33 3
-33 -8z"/>
<path d="M5952 8004 c-114 -30 -124 -60 -18 -57 51 1 76 7 110 27 25 15 48 31
51 36 9 15 -81 11 -143 -6z"/>
<path d="M6412 7958 c-18 -18 -15 -38 7 -38 31 0 82 22 78 34 -5 16 -70 19
-85 4z"/>
<path d="M6551 7942 c-18 -12 7 -27 64 -38 21 -4 49 -18 62 -32 22 -24 24 -24
48 -8 32 21 29 46 -5 63 -34 16 -152 26 -169 15z"/>
<path d="M4164 7866 c-6 -26 1 -46 17 -46 5 0 9 16 9 35 0 40 -17 47 -26 11z"/>
<path d="M3740 7865 c0 -27 30 -75 47 -75 12 0 14 7 10 37 -6 36 -20 53 -44
53 -7 0 -13 -7 -13 -15z"/>
<path d="M6083 7606 c-85 -25 -132 -46 -190 -84 -76 -50 -120 -71 -216 -106
-66 -25 -159 -111 -155 -144 5 -40 21 -36 79 16 71 65 78 67 213 96 114 24
150 41 191 86 l20 23 -20 -6 c-46 -13 -125 -18 -125 -9 0 23 201 72 297 72 12
0 34 5 50 11 l28 11 -27 14 c-37 19 -35 31 5 43 l32 9 -35 1 c-19 0 -86 -15
-147 -33z"/>
<path d="M1060 7606 c-14 -39 -12 -92 5 -106 26 -21 38 -1 33 57 -6 66 -23 88
-38 49z"/>
<path d="M1125 7570 c-11 -78 3 -167 31 -198 l23 -27 1 43 c0 37 -35 221 -44
230 -2 2 -7 -20 -11 -48z"/>
<path d="M3915 7595 c4 -11 32 -119 62 -240 31 -121 60 -224 65 -229 13 -16 9
66 -7 146 -20 95 -69 241 -101 298 -14 25 -22 36 -19 25z"/>
<path d="M5268 7554 c-12 -19 -32 -134 -24 -141 12 -12 25 18 32 74 6 53 2 85
-8 67z"/>
<path d="M1204 7507 c-10 -41 32 -273 60 -332 14 -27 36 -76 50 -108 41 -93
186 -290 202 -274 3 3 -3 22 -14 44 -26 51 -58 154 -72 228 -21 113 -32 155
-42 155 -6 0 -7 -32 -3 -82 6 -75 5 -81 -9 -64 -15 19 -46 138 -66 257 -6 37
-21 81 -33 99 -12 18 -32 49 -44 68 l-22 36 -7 -27z"/>
<path d="M3725 7493 c12 -68 50 -176 63 -181 15 -5 8 34 -25 141 -25 80 -51
108 -38 40z"/>
<path d="M6314 7293 c-19 -21 -54 -78 -79 -129 -73 -149 -173 -223 -315 -232
-74 -5 -134 -25 -159 -56 -11 -13 -7 -16 24 -22 60 -11 311 0 329 15 24 20 11
29 -57 37 l-62 8 53 12 c78 18 202 105 242 169 16 25 19 43 14 73 -7 46 13 93
51 118 14 9 25 23 25 30 0 26 -32 14 -66 -23z"/>
<path d="M5095 7094 c-9 -14 -33 -43 -52 -65 -39 -43 -38 -58 5 -43 28 10 96
109 86 125 -9 15 -21 10 -39 -17z"/>
<path d="M4153 7014 c-6 -16 14 -287 26 -345 10 -51 27 -45 51 18 45 122 33
276 -26 322 -32 25 -43 26 -51 5z"/>
<path d="M1510 6960 c0 -44 126 -330 145 -330 37 0 21 119 -19 145 -12 8 -44
55 -70 105 -46 87 -56 102 -56 80z"/>
<path d="M3827 6940 c-13 -45 -21 -360 -10 -360 17 0 21 21 28 147 7 125 -5
260 -18 213z"/>
<path d="M3567 6795 c-33 -205 -33 -205 -12 -205 20 0 27 47 23 160 -3 88 -4
91 -11 45z"/>
<path d="M3305 6819 c-3 -9 -2 -32 3 -50 l9 -34 7 32 c8 37 -8 81 -19 52z"/>
<path d="M3438 6785 c-3 -6 -7 -35 -8 -65 -3 -90 -1 -105 10 -94 6 6 10 44 8
90 -2 43 -6 74 -10 69z"/>
<path d="M3187 6763 c-10 -10 -8 -56 3 -73 7 -11 10 -2 10 33 0 48 -1 52 -13
40z"/>
<path d="M1695 6649 c-11 -18 5 -81 38 -149 56 -113 165 -213 260 -235 56 -14
12 54 -57 86 -23 11 -36 30 -58 83 -15 38 -33 75 -39 82 -15 19 -29 8 -29 -22
0 -46 -28 -26 -45 33 -16 55 -51 133 -60 133 -2 0 -7 -5 -10 -11z"/>
<path d="M4920 6568 c0 -74 12 -102 29 -70 12 22 15 90 5 116 -3 9 -12 16 -20
16 -11 0 -14 -16 -14 -62z"/>
<path d="M4852 6598 c-14 -14 -17 -178 -3 -178 14 0 19 23 27 103 7 74 -1 98
-24 75z"/>
<path d="M4760 6545 c-13 -33 -13 -215 -1 -215 15 0 22 31 29 130 6 69 5 94
-5 102 -9 8 -15 4 -23 -17z"/>
<path d="M4155 6546 c-3 -9 -7 -23 -10 -32 -3 -9 -10 -67 -15 -128 -10 -134
-40 -254 -126 -517 -61 -187 -76 -246 -54 -207 12 19 109 278 133 353 9 28 23
83 32 123 19 95 58 412 51 419 -3 3 -8 -2 -11 -11z"/>
<path d="M5482 6528 c-7 -7 -12 -16 -12 -20 0 -4 -11 -31 -25 -60 -29 -61 -29
-58 -11 -58 31 0 92 104 80 135 -7 18 -16 19 -32 3z"/>
<path d="M4671 6483 c-14 -50 -14 -273 -1 -273 6 0 24 21 40 47 l30 47 -25 13
c-24 13 -24 15 -18 108 4 66 3 95 -5 95 -6 0 -16 -17 -21 -37z"/>
<path d="M5182 6503 c-14 -26 -16 -60 -2 -68 12 -7 23 34 18 66 l-3 24 -13
-22z"/>
<path d="M1410 6442 c0 -11 9 -48 19 -83 11 -35 22 -80 26 -99 9 -45 33 -83
47 -74 20 13 1 153 -30 214 -28 56 -62 79 -62 42z"/>
<path d="M4037 6394 c-4 -10 -14 -66 -22 -124 -29 -192 -70 -336 -153 -530
-47 -111 -77 -169 -125 -236 -24 -36 -27 -45 -17 -64 14 -26 43 -23 49 5 2 11
14 33 27 48 13 16 24 37 24 46 0 10 9 30 21 45 62 79 200 534 224 736 5 40 3
60 -8 74 -14 20 -15 20 -20 0z"/>
<path d="M4517 6383 c-4 -3 -7 -22 -7 -42 0 -42 16 -32 26 17 6 30 -3 42 -19
25z"/>
<path d="M4586 6323 c-9 -57 -7 -103 4 -103 6 0 10 30 10 70 0 39 -2 70 -4 70
-2 0 -6 -17 -10 -37z"/>
<path d="M4421 6306 c-15 -60 -14 -99 2 -94 20 7 37 50 37 96 0 58 -24 56 -39
-2z"/>
<path d="M4186 6260 c-2 -14 -7 -48 -11 -77 -3 -29 -23 -112 -45 -185 -21 -73
-37 -134 -35 -137 6 -5 61 115 87 189 23 67 35 189 20 216 -10 17 -11 17 -16
-6z"/>
<path d="M4924 6137 c-35 -30 -16 -45 20 -16 26 21 34 39 17 39 -6 0 -22 -11
-37 -23z"/>
<path d="M5075 6123 c-30 -31 -43 -53 -32 -53 2 0 23 20 47 45 24 25 39 45 33
45 -7 0 -28 -16 -48 -37z"/>
<path d="M5158 6062 c-23 -22 -39 -44 -35 -48 4 -5 26 11 49 34 55 54 42 66
-14 14z"/>
<path d="M3812 5970 c-79 -207 -98 -250 -142 -340 -27 -52 -84 -146 -129 -209
-76 -106 -93 -141 -72 -141 13 0 93 90 138 155 84 125 175 332 223 508 30 111
20 127 -18 27z"/>
<path d="M3562 6007 c-17 -20 -52 -116 -52 -140 1 -27 54 72 65 121 7 34 4 40
-13 19z"/>
<path d="M5230 5974 c-41 -38 -70 -82 -70 -106 1 -13 81 68 108 110 25 38 6
36 -38 -4z"/>
<path d="M5227 5823 c-4 -3 -7 -20 -7 -37 l0 -31 20 30 c11 17 20 33 20 38 0
9 -24 9 -33 0z"/>
<path d="M3581 5742 c-12 -26 -43 -82 -67 -125 -51 -88 -55 -122 -8 -55 51 70
114 211 102 223 -2 3 -14 -17 -27 -43z"/>
<path d="M5260 5692 c-18 -15 -22 -24 -14 -32 7 -7 15 -5 28 9 27 30 16 47
-14 23z"/>
<path d="M2909 5553 c-58 -61 -153 -204 -116 -175 28 23 167 212 155 212 -2 0
-20 -17 -39 -37z"/>
<path d="M3657 5356 c-27 -29 -41 -36 -70 -36 -67 0 -55 -45 16 -57 33 -5 37
-3 48 23 7 16 26 40 42 55 26 22 27 26 13 38 -14 12 -21 8 -49 -23z"/>
<path d="M2237 5191 c-64 -60 -153 -136 -198 -168 -83 -59 -105 -83 -74 -83
56 0 282 196 394 343 7 9 9 17 4 17 -6 0 -63 -49 -126 -109z"/>
<path d="M6034 5228 c-48 -36 -49 -38 -17 -38 33 0 63 22 63 46 0 20 -13 18
-46 -8z"/>
<path d="M3350 4943 c-8 -3 -89 -38 -180 -78 -91 -40 -207 -90 -258 -110 -50
-20 -95 -42 -98 -47 -8 -13 11 -7 166 52 69 26 175 60 235 76 90 23 116 34
143 60 44 44 41 65 -8 47z"/>
<path d="M2685 4664 c-51 -19 -72 -39 -30 -30 17 4 48 16 70 26 49 22 19 25
-40 4z"/>
<path d="M5961 4630 c-39 -130 -68 -349 -57 -425 6 -36 10 -45 17 -33 13 24
61 403 57 456 l-3 47 -14 -45z"/>
<path d="M3177 4553 c-125 -123 -204 -216 -187 -221 12 -4 292 266 311 301 8
13 6 17 -7 17 -9 0 -62 -44 -117 -97z"/>
<path d="M6184 4597 c-7 -20 11 -93 26 -102 16 -10 12 79 -4 101 -14 18 -15
18 -22 1z"/>
<path d="M3051 4539 c-17 -17 -31 -35 -31 -40 0 -13 49 25 67 51 22 31 -2 24
-36 -11z"/>
<path d="M3193 4428 c-152 -146 -268 -288 -235 -288 9 0 291 285 320 324 12
16 22 33 22 37 0 22 -26 3 -107 -73z"/>
<path d="M6142 4390 c-5 -14 -13 -54 -16 -90 -4 -36 -16 -119 -26 -185 -30
-196 -32 -215 -20 -215 39 0 112 442 82 496 -10 18 -11 18 -20 -6z"/>
<path d="M3238 4311 c-24 -22 -37 -41 -30 -41 17 0 89 67 80 75 -4 4 -26 -11
-50 -34z"/>
<path d="M2648 4291 c-71 -45 -80 -75 -15 -47 37 15 77 49 77 66 0 16 -13 12
-62 -19z"/>
<path d="M3064 4159 c-63 -61 -99 -107 -90 -117 7 -7 132 112 148 141 20 37
-2 28 -58 -24z"/>
<path d="M6222 4115 c-12 -44 -30 -119 -42 -168 -11 -48 -33 -128 -50 -178
-16 -51 -30 -105 -30 -120 0 -115 78 124 130 398 26 138 22 177 -8 68z"/>
<path d="M2563 4156 c-26 -23 -27 -26 -12 -41 15 -15 18 -14 47 10 18 15 32
33 32 41 0 22 -36 16 -67 -10z"/>
<path d="M2787 4145 c-9 -21 2 -45 20 -45 10 0 13 9 11 27 -3 30 -23 41 -31
18z"/>
<path d="M2460 4115 c-7 -8 -9 -22 -6 -31 6 -15 9 -15 29 -1 29 19 35 47 9 47
-11 0 -25 -7 -32 -15z"/>
<path d="M2536 4054 c-9 -24 -7 -64 3 -64 19 0 29 64 12 74 -5 3 -12 -1 -15
-10z"/>
<path d="M2756 4029 c-33 -26 -35 -53 -3 -44 32 10 87 45 87 56 0 17 -57 9
-84 -12z"/>
<path d="M6367 4003 c-3 -5 -17 -64 -32 -133 -43 -203 -81 -339 -125 -443 -22
-54 -60 -155 -84 -225 -24 -70 -62 -156 -84 -193 -53 -86 -132 -245 -132 -264
0 -35 32 -11 69 53 106 179 301 688 366 953 33 137 46 293 22 252z"/>
<path d="M6261 3865 c-6 -33 -13 -68 -15 -78 -2 -9 0 -15 4 -12 12 7 33 107
28 130 -3 12 -10 -6 -17 -40z"/>
<path d="M6016 3734 c-10 -25 -7 -124 3 -124 5 0 15 16 21 36 18 55 -4 139
-24 88z"/>
<path d="M6219 3703 c-6 -16 -29 -80 -51 -143 -22 -63 -60 -159 -84 -213 -24
-53 -44 -103 -44 -110 0 -21 -49 -118 -76 -149 -14 -17 -34 -49 -46 -71 -11
-22 -44 -72 -73 -111 -30 -39 -93 -141 -141 -226 -91 -163 -118 -219 -110
-227 5 -6 330 483 395 594 66 114 198 465 236 626 14 61 11 75 -6 30z"/>
<path d="M6618 3634 c-14 -21 -20 -91 -9 -98 6 -4 14 -1 17 7 8 21 0 104 -8
91z"/>
<path d="M6431 3500 c-65 -205 -321 -751 -443 -945 -41 -66 -121 -203 -178
-305 -57 -102 -168 -288 -248 -414 -80 -126 -147 -239 -149 -250 -8 -38 79 66
126 150 25 43 103 176 174 294 287 476 383 643 467 816 153 312 295 673 288
732 -2 19 -13 -3 -37 -78z"/>
<path d="M4176 3528 c-27 -42 -37 -113 -26 -183 8 -51 7 -80 -5 -137 -9 -40
-18 -86 -21 -103 -5 -29 -5 -29 11 -10 26 31 92 166 115 236 16 46 20 77 17
111 -11 94 -57 137 -91 86z"/>
<path d="M6512 3490 c-21 -33 -57 -168 -48 -177 12 -12 80 166 74 194 -3 14
-9 10 -26 -17z"/>
<path d="M6662 3447 c-7 -16 -12 -40 -11 -55 1 -26 1 -26 15 7 8 18 13 43 11
55 -3 19 -4 19 -15 -7z"/>
<path d="M3974 3274 c-24 -57 -70 -293 -99 -507 -30 -226 -31 -234 -9 -217 28
24 33 47 64 281 17 129 42 286 55 349 25 120 19 167 -11 94z"/>
<path d="M6470 3168 c-18 -40 -58 -136 -90 -213 -32 -78 -133 -287 -223 -465
-167 -328 -242 -488 -234 -496 22 -22 417 773 551 1109 25 63 46 119 46 125 0
30 -20 5 -50 -60z"/>
<path d="M4028 3025 c-15 -55 -29 -125 -32 -155 l-6 -55 29 55 c39 72 54 144
44 206 l-9 49 -26 -100z"/>
<path d="M6357 3078 c-38 -64 -185 -369 -192 -398 -14 -57 47 37 119 185 79
160 112 242 103 251 -3 3 -17 -14 -30 -38z"/>
<path d="M6951 3057 c-6 -35 -11 -79 -10 -98 l1 -34 14 34 c19 42 31 161 16
161 -5 0 -15 -28 -21 -63z"/>
<path d="M3827 3056 c-18 -45 -107 -680 -107 -758 0 -52 15 -48 34 10 21 66
33 146 46 302 6 74 20 202 30 284 11 81 20 155 20 162 0 18 -16 18 -23 0z"/>
<path d="M6471 2889 c-25 -56 -22 -79 3 -30 26 49 36 81 27 81 -5 0 -18 -23
-30 -51z"/>
<path d="M3691 2863 c-17 -83 -59 -400 -80 -608 -38 -382 -39 -555 -1 -408 22
90 30 158 51 458 11 165 29 360 40 433 10 73 19 142 19 153 0 37 -18 19 -29
-28z"/>
<path d="M6038 2804 c-14 -22 -45 -78 -68 -125 -24 -46 -115 -203 -202 -349
-88 -146 -163 -269 -166 -274 -3 -5 0 -6 7 -2 22 14 218 321 302 474 45 81 99
178 121 215 44 77 50 130 6 61z"/>
<path d="M6934 2676 c-8 -21 18 -64 83 -136 32 -36 71 -83 85 -105 35 -51 116
-131 124 -122 4 3 -3 22 -14 42 -20 32 -188 261 -232 313 -21 25 -38 28 -46 8z"/>
<path d="M6480 2645 c-16 -50 -5 -68 14 -23 18 42 20 58 7 58 -5 0 -15 -16
-21 -35z"/>
<path d="M7060 2657 c0 -19 54 -101 122 -186 32 -40 70 -95 83 -121 25 -50 57
-80 86 -80 9 0 43 -13 75 -30 32 -16 74 -30 91 -30 29 0 35 -6 55 -46 19 -40
31 -50 72 -65 27 -10 59 -27 71 -39 29 -27 32 -26 44 18 17 59 14 168 -5 187
-22 22 -37 15 -50 -24 -6 -18 -15 -32 -20 -33 -5 0 -20 27 -34 61 -47 115
-102 138 -69 28 22 -71 22 -77 10 -77 -5 0 -23 24 -39 53 -34 60 -93 127 -112
127 -12 0 -10 -23 6 -64 12 -30 -26 -17 -44 15 -29 53 -96 141 -100 131 -2 -6
15 -47 38 -92 23 -45 40 -86 38 -92 -5 -13 -114 152 -160 240 -22 44 -48 75
-79 98 -48 35 -79 43 -79 21z"/>
<path d="M3562 2637 c-18 -21 -31 -130 -52 -432 -27 -385 -36 -635 -23 -635
20 0 24 35 39 300 18 332 43 705 50 748 7 34 3 40 -14 19z"/>
<path d="M6037 2432 c-96 -178 -125 -238 -108 -228 12 8 118 191 165 284 46
91 58 122 47 122 -4 0 -51 -80 -104 -178z"/>
<path d="M6321 2539 c-16 -35 -43 -95 -61 -134 -44 -96 -52 -117 -41 -110 28
17 150 289 137 303 -3 2 -19 -24 -35 -59z"/>
<path d="M5579 2274 c-56 -83 -105 -182 -95 -191 3 -4 13 2 20 13 22 29 138
254 132 254 -3 0 -29 -34 -57 -76z"/>
<path d="M3407 2158 c-17 -332 -29 -748 -23 -773 7 -26 9 -27 23 -12 14 13 16
73 21 461 3 291 1 446 -5 446 -6 0 -13 -52 -16 -122z"/>
<path d="M5807 2048 c-128 -171 -231 -348 -213 -365 9 -10 71 61 129 150 63
94 182 316 174 323 -3 3 -43 -46 -90 -108z"/>
<path d="M3315 2030 c-6 -9 -9 -125 -7 -310 2 -226 -1 -322 -13 -410 -8 -63
-18 -144 -20 -180 l-5 -65 21 44 c15 31 24 78 30 155 13 149 7 786 -6 766z"/>
<path d="M5524 1942 c-70 -104 -110 -179 -102 -187 12 -13 26 4 57 70 16 36
41 80 54 97 14 18 32 48 41 66 30 58 2 33 -50 -46z"/>
<path d="M3216 1753 c-6 -23 -23 -243 -31 -398 -3 -66 -10 -189 -16 -273 -8
-110 -8 -157 0 -165 15 -15 26 21 40 133 28 232 43 720 22 720 -5 0 -12 -8
-15 -17z"/>
<path d="M3107 1297 c-3 -9 -13 -74 -22 -145 -9 -70 -27 -176 -40 -236 -14
-60 -23 -111 -21 -114 3 -2 14 -1 25 3 29 9 38 51 56 277 17 196 17 253 2 215z"/>
<path d="M2646 1106 c-7 -27 10 -126 23 -139 22 -22 34 6 27 65 -9 87 -36 128
-50 74z"/>
<path d="M2973 995 c-20 -65 -53 -223 -53 -250 0 -33 16 -32 34 3 16 31 39
200 34 252 l-3 35 -12 -40z"/>
<path d="M2736 773 c-12 -69 -15 -119 -7 -132 7 -11 11 -10 19 5 17 31 19 154
3 154 -5 0 -12 -12 -15 -27z"/>
</g>
</svg>
